<?xml version="1.0" standalone="no"?>
<!DOCTYPE svg PUBLIC "-//W3C//DTD SVG 20010904//EN"
 "http://www.w3.org/TR/2001/REC-SVG-20010904/DTD/svg10.dtd">
<svg version="1.0" xmlns="http://www.w3.org/2000/svg"
 width="1024.000000pt" height="1536.000000pt" viewBox="0 0 1024.000000 1536.000000"
 preserveAspectRatio="xMidYMid meet">

<g transform="translate(0.000000,1536.000000) scale(0.100000,-0.100000)"
fill="#000000" stroke="none">
<path d="M3781 14721 c-8 -5 -9 -11 -3 -15 5 -3 12 1 16 9 6 17 6 18 -13 6z"/>
<path d="M3695 14673 c5 -14 3 -15 -6 -6 -9 9 -25 4 -70 -19 -33 -17 -59 -35
-59 -40 0 -5 -4 -7 -9 -3 -5 3 -12 1 -16 -5 -3 -5 -14 -10 -23 -10 -9 -1 -35
-13 -57 -28 -29 -20 -40 -35 -41 -55 -1 -15 3 -27 8 -27 13 0 38 26 38 40 0 7
7 10 15 6 14 -5 116 50 123 67 2 4 12 7 23 7 10 0 19 4 19 9 0 15 -18 23 -25
11 -3 -5 -11 -10 -18 -10 -6 0 -2 6 8 14 12 8 27 11 39 6 14 -5 27 -1 40 12
11 10 26 18 34 18 11 0 11 3 -2 15 -20 20 -30 19 -21 -2z m-35 -23 c0 -5 -5
-10 -11 -10 -5 0 -7 5 -4 10 3 6 8 10 11 10 2 0 4 -4 4 -10z m-89 -63 c-10 -9
-11 -8 -5 6 3 10 9 15 12 12 3 -3 0 -11 -7 -18z m-79 -39 c-6 -6 -15 -8 -19
-4 -4 4 -1 11 7 16 19 12 27 3 12 -12z m-42 -17 c0 -5 -7 -12 -16 -15 -14 -5
-15 -4 -4 9 14 17 20 19 20 6z"/>
<path d="M3368 14506 c-10 -7 -15 -15 -13 -18 3 -3 -5 -13 -16 -24 -22 -19
-22 -19 -10 4 11 20 10 22 -1 15 -7 -4 -29 -19 -50 -31 -27 -17 -35 -29 -34
-46 2 -14 -5 -28 -17 -35 -11 -8 -16 -8 -12 -2 3 6 -1 14 -9 17 -15 6 -76 -35
-119 -78 -10 -10 -23 -18 -28 -18 -6 0 -9 -6 -6 -14 4 -10 0 -12 -16 -8 -21 5
-21 4 2 -15 17 -14 21 -22 12 -27 -7 -4 -10 -2 -9 4 2 7 -7 14 -19 16 -13 2
-23 0 -23 -4 0 -4 -13 -16 -30 -25 -16 -10 -30 -24 -30 -32 0 -9 -6 -12 -15
-9 -11 5 -13 2 -8 -12 5 -13 3 -16 -10 -11 -11 4 -18 -1 -22 -14 -4 -10 -10
-17 -15 -14 -13 8 -82 -56 -76 -71 3 -8 0 -11 -8 -8 -7 3 -41 -23 -76 -56 -51
-49 -61 -63 -49 -71 12 -8 12 -9 -1 -7 -19 3 -71 -42 -63 -55 3 -6 2 -7 -4 -4
-11 7 -68 -51 -59 -60 3 -4 6 -1 6 7 0 9 3 10 13 1 8 -6 17 -9 20 -6 4 3 5 2
2 -2 -3 -4 -20 -7 -37 -8 -18 -1 -34 -7 -36 -14 -2 -7 -15 -23 -28 -36 -13
-13 -24 -28 -24 -32 0 -4 -16 -23 -35 -42 -19 -19 -32 -38 -29 -43 3 -4 -1 -8
-8 -8 -11 -1 -56 -52 -106 -122 -11 -15 -11 -17 3 -12 11 5 14 2 9 -10 -4 -10
-12 -15 -20 -12 -11 4 -61 -54 -107 -126 -16 -25 -16 -27 1 -31 12 -3 11 -5
-5 -6 -13 0 -23 -6 -23 -11 0 -6 5 -9 11 -8 6 2 14 -4 16 -12 3 -9 1 -11 -4
-5 -7 10 -17 11 -40 6 -5 -1 1 -9 12 -17 20 -16 20 -16 -1 -10 -16 5 -26 0
-38 -18 -9 -14 -16 -32 -16 -40 0 -7 -7 -17 -16 -20 -8 -3 -13 -10 -10 -15 3
-4 -4 -17 -15 -27 -11 -10 -17 -24 -14 -31 2 -8 1 -12 -3 -9 -4 2 -25 -28 -47
-67 -128 -235 -192 -381 -174 -393 5 -3 9 -1 9 4 0 5 6 9 14 9 8 0 12 -6 9
-13 -3 -7 -15 -10 -31 -8 -15 3 -24 2 -20 -1 4 -4 -2 -22 -13 -41 -23 -42 -23
-44 -4 -44 20 0 19 -14 -2 -31 -16 -13 -17 -12 -4 4 11 14 11 17 -2 17 -8 0
-17 -9 -20 -20 -3 -11 -1 -20 4 -20 6 0 0 -10 -11 -22 -20 -22 -20 -23 -3 -36
17 -13 17 -13 -2 -10 -12 2 -20 -3 -21 -12 0 -8 -6 -28 -13 -44 -14 -34 1 -61
27 -47 21 12 53 99 38 105 -6 2 -3 5 8 5 14 1 17 7 14 26 -3 13 -1 22 3 19 10
-6 13 16 10 56 -1 13 4 29 13 35 15 12 58 92 70 132 4 12 2 24 -4 28 -5 3 -10
-1 -10 -9 0 -9 -4 -16 -9 -16 -16 0 -7 53 9 57 12 4 12 3 2 -5 -11 -7 -9 -10
6 -14 16 -4 24 3 37 32 10 21 14 43 11 49 -4 6 -1 11 7 11 7 0 19 12 25 26 10
20 10 24 0 19 -7 -4 -4 2 7 12 27 26 87 142 79 154 -3 5 -2 8 3 7 4 -2 9 1 10
5 1 4 9 15 18 24 9 8 14 22 11 30 -3 8 -2 12 3 9 5 -3 14 1 21 9 11 13 10 14
-4 9 -12 -5 -15 -2 -10 9 3 9 12 13 20 10 8 -3 14 0 14 7 0 7 11 26 26 42 14
17 23 37 20 44 -3 8 0 11 10 7 10 -3 12 0 9 10 -4 8 1 17 11 21 15 6 15 8 0
31 -16 24 -16 25 10 14 24 -9 26 -8 14 7 -12 14 -11 15 6 12 13 -2 18 2 16 14
-1 9 3 20 9 24 8 4 9 3 5 -4 -4 -7 -2 -12 3 -12 6 0 11 6 11 13 0 8 9 22 20
32 12 10 18 25 16 32 -3 7 0 12 6 10 6 -1 13 4 16 12 3 9 0 11 -8 6 -9 -5 -11
-4 -6 3 4 7 14 12 21 12 9 0 12 6 8 17 -5 13 -3 15 12 9 11 -4 16 -4 12 0 -4
4 1 13 11 20 15 12 15 15 2 25 -13 9 -13 10 0 7 15 -5 60 29 60 44 0 5 14 21
31 35 16 14 28 32 25 39 -3 8 -2 13 2 11 9 -2 99 90 113 116 6 9 7 22 4 27 -3
6 1 7 9 4 10 -4 16 -1 16 10 0 10 6 13 16 9 10 -4 14 -1 12 8 -2 8 2 16 7 18
18 5 45 34 45 48 0 7 6 13 13 13 13 0 102 87 102 100 0 5 4 12 9 17 6 5 6 2 1
-7 -5 -8 4 -4 18 9 28 26 35 37 15 25 -7 -4 -8 -3 -4 4 4 6 12 9 19 6 7 -2 31
11 53 30 21 19 95 79 164 133 69 54 136 108 150 120 14 13 30 23 37 23 7 0 13
5 13 10 0 6 7 10 15 10 26 0 16 18 -12 23 -23 4 -22 5 7 5 58 0 62 1 57 16 -3
8 2 20 10 28 15 11 16 11 10 -4 -3 -10 -2 -18 3 -18 12 0 13 30 2 47 -5 8 -11
8 -24 -1z m-188 -157 c0 -5 6 -7 13 -3 6 4 8 3 4 -1 -13 -15 -34 -14 -34 1 0
8 4 14 9 14 4 0 8 -5 8 -11z m-30 -19 c0 -5 -4 -10 -10 -10 -5 0 -10 5 -10 10
0 6 5 10 10 10 6 0 10 -4 10 -10z m-27 -47 c-7 -2 -19 -2 -25 0 -7 3 -2 5 12
5 14 0 19 -2 13 -5z m-28 -23 c3 -5 2 -10 -4 -10 -5 0 -13 5 -16 10 -3 6 -2
10 4 10 5 0 13 -4 16 -10z m-81 -44 c-3 -8 -13 -17 -22 -21 -13 -5 -13 -2 3
15 21 24 26 25 19 6z m-34 -50 c0 -11 -19 -15 -25 -6 -3 5 1 10 9 10 9 0 16
-2 16 -4z m-138 -92 c-8 -15 -9 -15 -15 0 -4 10 -3 15 3 11 6 -3 10 2 11 12 0
10 3 13 5 6 3 -7 1 -20 -4 -29z m-64 -69 c-3 -3 -9 2 -12 12 -6 14 -5 15 5 6
7 -7 10 -15 7 -18z m-85 -80 c4 -8 3 -16 -1 -19 -4 -3 -9 4 -9 15 -2 23 3 25
10 4z m-138 -165 c3 -5 1 -10 -4 -10 -6 0 -11 5 -11 10 0 6 2 10 4 10 3 0 8
-4 11 -10z m-51 -42 c-3 -4 -9 -8 -15 -8 -5 0 -9 4 -9 8 0 5 7 9 15 9 8 0 12
-4 9 -9z m-44 -58 c0 -5 -2 -10 -4 -10 -3 0 -8 5 -11 10 -3 6 -1 10 4 10 6 0
11 -4 11 -10z m0 -24 c0 -2 -7 -7 -16 -10 -8 -3 -12 -2 -9 4 6 10 25 14 25 6z
m-150 -131 c-7 -9 -15 -13 -19 -10 -3 3 1 10 9 15 21 14 24 12 10 -5z m-32
-97 c-5 -14 -38 -20 -38 -6 0 6 7 8 15 4 8 -3 15 -1 15 4 0 6 3 10 6 10 3 0 4
-5 2 -12z m-142 -210 c4 -6 3 -8 -4 -4 -5 3 -12 0 -15 -6 -3 -10 -8 -10 -18 1
-8 8 -9 11 -2 7 6 -3 14 -2 18 4 8 13 12 13 21 -2z m-36 -32 c0 -3 -4 -8 -10
-11 -5 -3 -10 -1 -10 4 0 6 5 11 10 11 6 0 10 -2 10 -4z m-80 -116 c0 -5 -2
-10 -4 -10 -3 0 -8 5 -11 10 -3 6 -1 10 4 10 6 0 11 -4 11 -10z m-60 -130 c0
-5 -2 -10 -4 -10 -3 0 -8 5 -11 10 -3 6 -1 10 4 10 6 0 11 -4 11 -10z m0 -24
c0 -3 -4 -8 -10 -11 -5 -3 -10 -1 -10 4 0 6 5 11 10 11 6 0 10 -2 10 -4z m-46
-75 c-4 -3 -9 0 -11 7 -3 6 -10 9 -15 6 -7 -4 -8 -2 -4 5 6 9 11 9 22 0 8 -6
12 -15 8 -18z m-28 -56 c-20 -15 -36 -19 -36 -10 0 5 38 23 50 24 3 0 -4 -6
-14 -14z m-46 -107 c0 -6 -6 -5 -15 2 -8 7 -15 14 -15 16 0 2 7 1 15 -2 8 -4
15 -11 15 -16z m-40 -92 c0 -2 -7 -6 -15 -10 -8 -3 -15 -1 -15 4 0 6 7 10 15
10 8 0 15 -2 15 -4z m-60 -136 c0 -5 -5 -10 -11 -10 -5 0 -7 5 -4 10 3 6 8 10
11 10 2 0 4 -4 4 -10z m-5 -58 c-3 -3 -11 0 -18 7 -9 10 -8 11 6 5 10 -3 15
-9 12 -12z m-15 -52 c0 -5 -7 -7 -15 -4 -8 4 -15 8 -15 10 0 2 7 4 15 4 8 0
15 -4 15 -10z"/>
<path d="M3211 14411 c-8 -6 -9 -11 -3 -15 6 -3 14 -1 17 5 9 14 2 20 -14 10z"/>
<path d="M9688 14375 c-2 -2 -74 -13 -101 -14 -5 -1 -6 -5 -3 -10 3 -4 17 -6
31 -3 14 2 25 0 25 -5 0 -13 -46 -9 -64 6 -9 7 -27 10 -43 7 -15 -3 -59 -8
-98 -11 -38 -3 -88 -7 -110 -10 -22 -2 -74 -7 -115 -10 -104 -8 -160 -14 -195
-22 -16 -3 -43 -7 -60 -8 -86 -7 -596 -69 -650 -79 -11 -2 -42 -7 -70 -11
-120 -18 -158 -22 -370 -41 -38 -3 -95 -9 -125 -14 -30 -5 -84 -13 -120 -18
-36 -6 -96 -13 -135 -17 -38 -3 -99 -11 -135 -16 -68 -11 -99 -15 -350 -48
-270 -35 -459 -57 -610 -71 -58 -5 -141 -15 -185 -21 -118 -16 -124 -17 -203
-24 -40 -3 -78 -8 -85 -10 -12 -4 -25 -6 -177 -25 -70 -9 -90 -12 -165 -25
-16 -3 -61 -10 -100 -16 -38 -6 -73 -16 -77 -23 -6 -8 -8 -8 -8 0 0 8 -13 9
-42 4 -24 -5 -62 -11 -85 -14 -22 -3 -52 -7 -65 -10 -12 -3 -50 -8 -83 -11
-33 -3 -71 -7 -85 -9 -90 -14 -343 -49 -382 -53 -27 -3 -46 -8 -44 -11 2 -4
-12 -7 -32 -8 -50 -1 -77 -7 -96 -23 -20 -17 -21 -31 -1 -31 8 0 15 8 15 17 0
16 1 16 13 0 11 -15 22 -15 102 -6 50 6 106 12 125 14 19 2 62 9 95 14 63 11
143 22 185 26 137 14 225 27 230 33 3 4 19 7 35 8 17 0 46 3 65 7 19 3 64 9
100 12 36 4 115 15 175 25 127 22 389 55 555 70 63 6 121 13 128 15 13 5 143
21 242 31 103 10 127 13 175 18 28 3 95 11 150 17 55 5 114 12 130 15 17 2 86
12 155 21 69 9 127 20 128 25 2 4 8 6 13 3 8 -6 73 0 274 25 44 5 91 12 105
15 14 3 45 8 70 11 25 3 63 7 85 10 22 2 104 11 182 19 78 8 200 23 270 34 70
11 148 23 173 26 25 3 56 8 70 10 14 2 60 7 103 10 43 3 88 9 100 14 12 4 28
6 36 3 8 -2 11 -1 8 4 -3 5 23 10 56 11 34 1 76 3 92 6 17 3 40 5 53 6 13 0
21 4 19 9 -3 4 14 7 36 7 35 1 123 8 346 29 18 2 38 10 43 17 6 9 11 10 14 3
3 -7 23 -8 57 -3 28 3 55 5 60 2 4 -2 7 1 7 7 0 6 5 8 10 5 6 -3 10 -1 10 6 0
9 3 10 10 3 11 -11 92 -6 86 5 -3 4 8 6 22 5 35 -1 62 6 62 17 0 4 -17 6 -37
4 -29 -4 -32 -3 -13 3 20 6 22 9 8 14 -9 4 -18 5 -20 3z m-296 -77 c-8 -8 -9
-4 -5 13 4 13 8 18 11 10 2 -7 -1 -18 -6 -23z m-47 2 c3 -5 1 -10 -4 -10 -6 0
-11 5 -11 10 0 6 2 10 4 10 3 0 8 -4 11 -10z m-229 -12 c4 -6 3 -8 -4 -4 -6 3
-13 2 -17 -4 -3 -5 -12 -10 -18 -10 -7 0 -3 7 7 15 24 18 23 18 32 3z"/>
<path d="M9760 14350 c0 -5 5 -10 11 -10 5 0 7 5 4 10 -3 6 -8 10 -11 10 -2 0
-4 -4 -4 -10z"/>
<path d="M9747 14064 c-1 -1 -42 -5 -92 -8 -172 -13 -220 -17 -255 -21 -19 -3
-53 -7 -75 -9 -22 -3 -107 -14 -190 -25 -82 -11 -172 -23 -200 -26 -27 -3 -61
-8 -75 -10 -14 -2 -49 -7 -79 -10 -30 -4 -63 -9 -75 -11 -12 -2 -50 -7 -86
-10 -36 -3 -68 -8 -71 -10 -3 -2 -41 -6 -85 -9 -79 -6 -165 -14 -195 -20 -22
-4 -114 -14 -179 -20 -88 -8 -437 -47 -530 -60 -14 -2 -56 -7 -95 -10 -80 -7
-115 -12 -165 -19 -33 -5 -316 -41 -422 -53 -27 -3 -48 -9 -48 -13 0 -4 -11
-5 -24 -3 -20 4 -278 -19 -371 -32 -73 -11 -138 -19 -295 -35 -205 -22 -283
-31 -290 -35 -3 -2 -37 -7 -75 -10 -38 -4 -76 -8 -85 -10 -8 -1 -40 -6 -70 -9
-30 -4 -118 -16 -195 -27 -77 -10 -189 -26 -250 -35 -60 -8 -146 -21 -190 -29
-44 -7 -115 -16 -158 -20 -68 -6 -79 -10 -87 -29 -4 -12 -10 -229 -12 -482 -4
-408 -3 -460 11 -472 13 -10 14 -11 1 -7 -13 5 -15 -15 -13 -142 1 -82 3 -295
4 -475 1 -235 5 -326 13 -321 6 3 5 0 -1 -8 -8 -8 -13 -42 -13 -91 0 -63 3
-78 15 -78 8 0 15 7 15 16 0 8 -4 13 -8 10 -5 -3 -9 2 -9 10 0 13 2 13 15 1
18 -18 7 -58 -14 -50 -11 4 -14 -5 -14 -46 0 -34 4 -51 13 -51 9 0 8 -3 -2 -9
-9 -6 -10 -11 -2 -15 6 -4 7 -15 2 -29 -5 -12 -7 -31 -5 -42 2 -11 4 -37 6
-57 2 -38 11 -49 22 -25 3 6 4 3 3 -8 -2 -11 -8 -19 -14 -18 -11 2 -10 -38 2
-57 7 -12 25 -4 25 11 0 6 -5 7 -11 4 -13 -9 -8 27 6 37 6 5 6 18 -2 38 -6 16
-7 28 -2 24 5 -3 9 9 9 25 0 17 -4 31 -10 31 -5 0 -10 5 -10 11 0 5 4 8 9 5
16 -10 20 34 4 49 -13 13 -13 16 1 21 9 3 16 17 16 29 0 18 -6 24 -27 27 -25
3 -25 4 -8 18 11 9 16 10 11 3 -4 -8 -2 -13 7 -13 17 0 20 101 3 112 -8 5 -7
8 1 8 9 0 12 175 13 748 0 604 4 1104 9 1190 1 9 10 9 38 -3 20 -9 39 -17 40
-19 2 -2 4 -99 4 -215 0 -116 2 -211 5 -211 25 0 32 38 38 215 4 105 8 191 9
191 1 1 12 -2 25 -7 21 -8 22 -13 21 -111 0 -57 0 -105 1 -108 0 -3 1 -63 2
-133 1 -70 5 -130 10 -134 25 -15 31 25 33 232 1 118 4 218 7 221 3 2 17 -1
32 -7 l26 -12 -3 -291 c-2 -284 -1 -292 19 -318 l21 -27 2 42 c10 338 22 557
30 557 14 0 51 -32 46 -40 -3 -5 -8 -373 -11 -818 -4 -590 -3 -811 5 -816 23
-15 -2 -26 -55 -26 -30 0 -53 -4 -50 -8 2 -4 -11 -6 -30 -4 -30 4 -33 2 -28
-14 6 -17 6 -18 -7 -2 -10 12 -20 14 -36 7 -26 -10 -30 -37 -8 -46 14 -5 147
3 340 21 28 2 91 7 140 11 50 3 135 10 190 15 55 5 147 12 205 15 58 3 139 8
180 11 107 9 128 11 300 23 85 7 173 13 195 16 22 2 78 7 125 10 47 3 108 8
135 10 28 2 148 10 267 16 119 7 216 15 214 18 -2 3 52 6 121 6 69 0 189 5
267 12 191 16 261 21 471 33 99 6 200 12 225 15 25 3 86 7 135 10 50 3 171 12
270 20 99 8 227 17 285 20 116 7 196 13 283 20 31 3 85 7 120 10 34 3 82 8
107 10 25 3 94 9 154 15 67 6 113 15 118 22 4 7 8 211 8 453 1 242 2 725 2
1073 1 348 5 635 9 637 9 6 0 45 -14 63 -8 10 -80 15 -90 6z m-62 -43 c-3 -6
-11 -11 -16 -11 -5 0 -4 6 3 14 14 16 24 13 13 -3z m-195 -21 c0 -5 -5 -10
-11 -10 -5 0 -7 5 -4 10 3 6 8 10 11 10 2 0 4 -4 4 -10z m281 -412 c3 -36 -3
-1703 -6 -1708 -2 -3 -39 -7 -82 -8 -75 -2 -117 -7 -156 -19 -18 -5 -19 15
-13 584 4 323 6 715 6 870 l0 282 43 3 c138 10 207 9 208 -4z m-1145 -153 l0
-130 -160 0 -161 0 0 125 0 125 110 6 c61 3 133 5 160 5 l50 -1 1 -130z m-609
-24 c10 -1 11 -92 6 -428 -4 -236 -7 -610 -7 -833 -1 -354 -3 -406 -16 -406
-8 0 -82 -4 -164 -8 l-149 -7 7 803 c8 837 8 839 4 860 -2 9 17 14 72 16 41 1
86 4 100 6 21 2 79 1 147 -3z m1423 -166 c3 -71 3 -204 0 -295 l-5 -164 -87
-3 c-47 -2 -121 -7 -162 -11 l-76 -8 -2 85 c-1 47 -2 184 -4 303 l-2 217 97 3
c53 2 128 3 166 3 l70 0 5 -130z m-474 -527 c-6 -534 -14 -899 -20 -905 -1 -1
-42 -5 -91 -8 -50 -3 -109 -8 -132 -10 l-43 -3 0 72 c-1 247 2 699 6 921 2
143 4 318 4 388 l0 128 63 -4 c34 -2 89 -1 122 3 33 4 69 8 79 9 19 1 19 -13
12 -591z m-1936 527 c29 -15 29 -15 25 -97 -2 -46 -7 -175 -10 -288 -17 -499
-22 -730 -21 -942 l1 -227 -26 -5 c-14 -3 -70 -8 -125 -12 l-99 -7 1 114 c4
298 16 928 19 959 1 19 4 135 5 258 3 256 -4 240 103 249 34 2 64 6 66 9 8 8
32 4 61 -11z m1593 -43 c-2 -25 -5 -47 -6 -48 -1 -2 -56 -5 -122 -9 -157 -7
-170 -10 -172 -38 -2 -19 -1 -20 8 -4 12 21 33 23 25 2 -4 -12 3 -15 29 -15
28 0 33 3 28 18 -5 15 -4 14 9 -2 13 -16 24 -18 74 -13 73 7 92 14 97 35 3 11
5 8 6 -8 1 -20 3 -22 11 -10 12 18 11 44 10 -245 0 -233 -10 -748 -15 -753 -1
-1 -35 -5 -76 -7 -115 -8 -201 -16 -217 -22 -12 -5 -13 76 -10 574 l3 580 75
2 c41 1 76 4 78 6 3 2 41 4 86 4 l82 0 -3 -47z m-3037 7 c6 -10 6 -224 -1
-279 -1 -14 -3 -47 -4 -75 l-1 -50 -135 0 c-94 0 -138 -4 -147 -12 -22 -23
-28 -14 -28 42 l0 55 38 0 c20 0 64 4 97 10 33 5 80 12 104 15 52 6 56 9 47
31 -6 15 -19 16 -114 11 -59 -3 -122 -9 -139 -12 l-33 -6 0 125 0 125 33 9
c17 5 61 10 97 11 35 1 66 3 67 4 8 9 113 5 119 -4z m370 -144 c1 -74 -2 -132
-6 -130 -18 11 -92 18 -192 19 l-108 0 0 101 c0 55 4 106 8 112 13 20 79 31
192 32 l105 1 1 -135z m1220 101 c27 -13 59 -27 72 -31 23 -7 23 -10 18 -83
-2 -43 -5 -79 -5 -82 -1 -3 -32 -4 -71 -2 l-70 4 1 109 c0 60 2 109 3 109 1 0
24 -11 52 -24z m1066 -289 c-2 -149 -5 -462 -6 -693 l-1 -421 -74 -7 c-41 -3
-76 -5 -77 -3 -3 3 -6 617 -5 1103 l1 271 43 9 c23 5 60 10 83 12 l40 2 -4
-273z m275 249 c0 -8 -6 -12 -15 -9 -11 5 -11 7 0 14 7 5 13 9 14 9 0 0 1 -6
1 -14z m-901 -173 c-2 -93 -4 -407 -5 -700 l-1 -531 -97 -6 c-54 -4 -122 -11
-152 -15 l-54 -9 7 567 c4 311 8 586 10 611 2 25 4 84 5 131 1 100 -6 93 121
105 41 3 77 8 79 10 2 2 24 4 47 4 l43 0 -3 -167z m-1088 48 c48 -15 110 -34
137 -41 52 -14 78 -28 71 -39 -2 -3 -7 -130 -11 -281 -4 -151 -8 -302 -9 -335
-2 -33 -4 -109 -4 -170 l-2 -110 -112 -3 c-61 -2 -131 -5 -156 -7 l-45 -3 7
151 c8 213 20 697 19 790 0 42 4 77 9 77 5 0 48 -13 96 -29z m725 -693 c-5
-542 -7 -612 -21 -614 -8 -2 -43 -4 -76 -5 l-61 -3 -5 75 c-6 87 -5 321 4 574
3 99 9 263 12 365 3 102 7 190 9 197 4 12 35 19 102 22 l42 1 -6 -612z m-1305
587 c11 -11 0 -1280 -12 -1291 0 -1 -48 -4 -106 -7 -58 -4 -122 -9 -143 -13
l-38 -7 2 661 c0 363 3 662 5 665 7 7 285 0 292 -8z m395 -162 c-2 -82 -5
-184 -8 -228 -3 -44 -6 -251 -8 -460 l-2 -379 25 -13 c14 -7 21 -13 15 -13 -5
0 -72 -7 -149 -15 -76 -8 -143 -12 -148 -9 -9 5 -3 1233 6 1241 3 4 157 19
216 21 l55 2 -2 -147z m-763 -565 c0 -464 -3 -588 -12 -588 -11 0 -137 -11
-293 -24 -36 -4 -45 -2 -32 5 15 9 17 27 17 138 l0 128 68 6 c37 4 90 7 117 7
28 0 67 3 88 7 31 5 38 9 35 27 -3 20 -8 21 -155 20 l-153 -1 0 417 0 418 43
8 c49 8 185 19 240 19 l37 0 0 -587z m3860 413 l0 -158 -52 -7 c-29 -3 -105
-6 -168 -6 l-115 0 -2 150 c-2 111 1 152 10 155 7 2 70 6 141 9 71 4 132 9
134 11 3 3 16 5 29 5 l23 0 0 -159z m-4323 127 c-3 -8 -6 -5 -6 6 -1 11 2 17
5 13 3 -3 4 -12 1 -19z m4318 -603 c2 -252 1 -255 -19 -256 -12 -1 -30 -3 -41
-5 -32 -6 -269 -21 -276 -17 -5 2 0 513 5 520 0 0 70 3 154 6 85 3 156 8 159
11 4 3 9 4 12 1 3 -3 6 -120 6 -260z m-825 -84 l0 -38 -142 -7 c-79 -4 -147
-8 -153 -9 -5 -1 -10 12 -10 28 l0 30 90 8 c80 7 206 22 213 26 1 0 2 -16 2
-38z m-3853 -43 c-3 -8 -6 -5 -6 6 -1 11 2 17 5 13 3 -3 4 -12 1 -19z m1953
-72 l0 -63 -117 -7 c-65 -3 -135 -10 -155 -15 l-38 -9 0 68 0 68 98 7 c53 3
104 7 112 9 8 1 34 3 58 4 l42 1 0 -63z m1560 34 c0 -5 -2 -10 -4 -10 -3 0 -8
5 -11 10 -3 6 -1 10 4 10 6 0 11 -4 11 -10z m340 -73 c0 -79 -1 -83 -22 -83
-13 -1 -83 -4 -155 -8 l-133 -8 0 70 c0 61 2 71 18 71 42 0 167 14 220 26 31
7 60 13 65 14 4 0 7 -36 7 -82z m390 -77 c0 -5 -5 -10 -11 -10 -5 0 -7 5 -4
10 3 6 8 10 11 10 2 0 4 -4 4 -10z m-2291 -70 l-1 -60 -37 -1 c-20 0 -43 -2
-53 -4 -9 -1 -64 -6 -122 -10 l-106 -7 0 60 0 60 78 7 c42 3 86 7 97 9 11 2
48 4 82 5 l63 1 -1 -60z m-1939 -34 c0 -3 -4 -8 -10 -11 -5 -3 -10 -1 -10 4 0
6 5 11 10 11 6 0 10 -2 10 -4z"/>
<path d="M4465 13620 c3 -5 1 -10 -6 -10 -7 0 -4 -7 7 -15 15 -12 15 -14 2 -9
-15 5 -17 -6 -20 -103 -2 -59 -4 -322 -3 -583 l0 -475 23 -1 c18 -1 22 4 22
27 0 16 -5 29 -11 29 -5 0 -7 -6 -3 -12 5 -10 3 -9 -7 0 -12 11 -11 15 4 23
19 11 25 89 7 89 -5 0 -10 -4 -10 -10 0 -5 -5 -10 -12 -10 -6 0 -3 9 7 20 24
27 26 37 32 146 4 87 3 93 -19 108 -12 9 -18 16 -12 16 5 0 15 -5 22 -12 9 -9
12 13 13 103 0 62 1 239 3 392 2 257 1 279 -15 288 -23 12 -32 12 -24 -1z m20
-870 c-3 -6 -12 -10 -18 -10 -9 0 -8 3 1 8 7 5 10 17 7 28 -6 17 -6 18 5 1 6
-9 8 -22 5 -27z"/>
<path d="M1790 12525 c0 -8 2 -15 4 -15 2 0 6 7 10 15 3 8 1 15 -4 15 -6 0
-10 -7 -10 -15z"/>
<path d="M4463 12412 c-9 -6 -11 -33 -5 -79 1 -7 9 -10 17 -7 14 6 13 8 -2 21
-10 8 -13 12 -7 9 7 -3 14 3 17 14 3 11 0 20 -6 20 -8 0 -7 4 2 9 7 5 9 11 4
14 -5 3 -14 3 -20 -1z"/>
<path d="M1646 12253 c-13 -37 -13 -48 -4 -55 9 -5 8 -8 -5 -8 -11 0 -17 -5
-14 -12 2 -7 0 -21 -5 -30 -6 -12 -5 -18 2 -18 6 0 4 -7 -4 -16 -9 -8 -16 -26
-16 -38 0 -12 -3 -26 -7 -30 -9 -9 -32 -95 -32 -121 0 -19 0 -19 10 -2 6 9 14
15 20 12 10 -7 -14 -35 -30 -35 -5 0 -8 -14 -6 -30 3 -18 0 -28 -5 -25 -6 4
-10 0 -10 -9 0 -8 7 -13 18 -11 9 1 16 8 14 15 -1 6 2 9 6 6 5 -3 7 -17 4 -31
-4 -23 -6 -24 -17 -8 -11 15 -13 15 -23 -4 -19 -34 -21 -71 -6 -84 16 -13 19
-29 4 -29 -5 0 -10 7 -10 15 0 21 -15 19 -17 -2 -5 -45 -12 -98 -13 -98 -1 0
-3 -12 -4 -26 -2 -14 -6 -31 -10 -37 -5 -8 -1 -10 11 -6 17 5 17 5 1 -9 -22
-18 -23 -31 -2 -23 8 3 12 2 9 -4 -3 -6 -1 -10 5 -10 7 0 10 6 7 14 -3 7 -1
18 5 24 6 6 6 12 -1 16 -15 10 -14 29 2 20 9 -5 9 -4 1 5 -7 7 -9 22 -6 33 3
14 7 16 12 7 5 -7 13 12 19 47 6 32 21 90 33 128 19 63 20 69 4 78 -14 8 -13
13 10 44 15 18 21 34 14 34 -7 0 -6 6 4 16 19 19 21 28 4 18 -10 -6 -10 -5 -1
7 7 9 14 24 16 35 1 10 6 25 10 32 5 6 5 12 0 12 -4 0 -1 5 7 10 10 7 11 10 2
10 -7 0 -15 -7 -18 -15 -4 -8 -11 -15 -16 -15 -7 0 -6 5 1 13 6 8 7 17 3 21
-4 4 -2 7 3 6 24 -5 35 1 35 19 0 11 -6 22 -12 24 -9 4 -7 6 3 6 9 1 21 13 28
27 10 23 9 26 -4 21 -8 -4 -15 -2 -15 3 0 6 5 10 11 10 5 0 7 4 4 10 -3 6 1 7
9 4 10 -4 16 -1 16 9 0 9 3 24 6 34 5 15 4 15 -5 3 -7 -9 -11 -11 -11 -3 0 7
8 17 18 23 16 11 16 11 0 6 -10 -3 -20 -1 -23 4 -12 20 -23 9 -39 -37z m-76
-473 c0 -5 -4 -10 -10 -10 -5 0 -10 5 -10 10 0 6 5 10 10 10 6 0 10 -4 10 -10z
m-45 -128 c-11 -9 -15 -11 -8 -3 6 7 9 21 6 30 -5 13 -3 14 8 3 11 -10 10 -15
-6 -30z"/>
<path d="M3725 11943 c-295 -25 -455 -86 -605 -229 -79 -75 -87 -80 -115 -73
-39 10 -204 28 -224 24 -9 -2 -45 -6 -81 -10 -110 -12 -302 -65 -328 -92 -7
-7 -18 -13 -23 -13 -6 0 -56 -31 -113 -70 -88 -60 -121 -88 -207 -178 -8 -10
-29 -35 -45 -57 -16 -22 -31 -42 -34 -45 -3 -3 -11 -16 -18 -29 -8 -13 -23
-39 -34 -59 -23 -41 -81 -199 -97 -262 -17 -72 -82 -353 -87 -378 -11 -55 -77
-237 -105 -290 -42 -77 -101 -155 -171 -223 -76 -75 -156 -104 -295 -108 -27
-1 -31 -31 -8 -55 8 -8 15 -19 15 -25 0 -17 167 -182 230 -228 71 -52 110 -72
282 -139 181 -71 346 -113 451 -114 33 0 36 -2 25 -14 -8 -7 -31 -41 -53 -75
-21 -33 -46 -61 -55 -62 -80 -4 -326 -96 -337 -126 -3 -7 -9 -10 -14 -7 -5 3
-42 -28 -82 -68 -69 -68 -141 -168 -186 -256 -39 -77 -140 -338 -147 -379 -6
-39 -4 -45 23 -70 42 -39 143 -75 225 -81 l69 -5 -4 -31 c-3 -30 -4 -30 -53
-27 -67 3 -161 28 -207 54 -38 21 -39 21 -52 3 -8 -10 -32 -62 -55 -115 -23
-53 -45 -105 -50 -116 -38 -84 -129 -351 -146 -430 -1 -5 -7 -28 -13 -50 -5
-22 -13 -58 -16 -80 -4 -22 -10 -56 -15 -75 -18 -69 -42 -326 -36 -378 8 -65
46 -142 92 -181 114 -101 307 -199 529 -269 262 -83 435 -109 660 -98 131 6
144 8 245 27 75 15 231 90 291 140 27 22 49 38 49 34 0 -4 -21 -34 -47 -67
-58 -72 -124 -116 -223 -151 -102 -35 -185 -47 -326 -47 -65 0 -125 -4 -133
-9 -32 -20 16 -216 90 -363 55 -112 172 -233 226 -233 26 0 29 6 89 180 80
233 82 237 97 232 28 -9 22 -41 -50 -272 -18 -60 -47 -144 -62 -185 -16 -41
-50 -131 -76 -200 -44 -117 -190 -439 -220 -487 -8 -12 -42 -74 -75 -138 -34
-64 -78 -142 -98 -174 -20 -32 -62 -97 -92 -145 -30 -48 -89 -133 -130 -189
-42 -56 -82 -112 -90 -124 -28 -41 -281 -383 -293 -396 -14 -14 -47 -57 -139
-177 -35 -47 -131 -172 -212 -278 l-147 -193 18 -28 c10 -16 52 -57 93 -91 41
-35 75 -66 75 -70 0 -4 -45 -54 -100 -112 -55 -57 -116 -124 -137 -148 -20
-25 -52 -65 -72 -88 -20 -24 -36 -49 -36 -55 0 -43 291 -347 332 -347 13 0 40
20 69 52 l47 51 12 -57 c27 -133 111 -262 245 -380 191 -167 391 -213 590
-136 91 35 125 66 125 114 0 72 -82 138 -223 182 -77 24 -117 64 -166 169 -37
77 -53 118 -101 250 -12 33 -27 66 -33 74 -7 9 8 4 33 -11 136 -78 203 -108
285 -125 74 -15 101 1 171 105 22 31 44 64 51 72 18 23 89 126 214 310 170
249 199 294 199 308 0 6 4 12 9 12 5 0 13 10 17 23 4 12 23 47 42 77 44 70 59
96 147 255 40 72 94 168 120 215 26 47 67 123 91 170 24 47 50 96 58 110 24
39 95 190 90 190 -3 0 4 13 15 28 11 16 29 51 40 79 11 28 44 102 75 164 30
63 62 132 71 154 89 210 228 576 280 735 20 63 46 138 56 166 10 29 15 54 12
58 -3 3 -1 11 4 18 32 41 142 619 165 872 2 24 10 32 37 41 48 16 70 50 77
115 3 30 7 61 10 69 9 27 19 195 19 318 l0 122 115 -112 c63 -62 117 -115 120
-118 32 -35 280 -243 365 -305 141 -102 196 -134 235 -134 30 0 60 -19 60 -37
0 -24 77 -87 187 -151 135 -80 172 -116 267 -265 31 -48 64 -90 74 -94 9 -3
31 -11 49 -19 43 -19 76 -17 106 6 16 13 40 20 67 20 34 0 47 6 71 31 16 17
32 42 35 55 5 19 13 24 36 24 35 0 82 47 99 99 13 39 7 204 -8 223 -6 7 -13
25 -17 41 -3 15 -11 27 -16 27 -6 0 -10 6 -10 13 0 18 -73 131 -125 194 -81
98 -275 273 -303 273 -5 0 -15 6 -22 14 -6 8 -24 16 -38 18 -25 3 -27 7 -30
59 l-3 57 -162 159 c-150 146 -310 314 -404 423 -21 24 -46 52 -55 62 -10 10
-17 19 -16 21 1 1 -23 54 -54 117 -96 198 -155 322 -188 400 -18 41 -54 122
-81 179 -27 57 -49 107 -49 110 0 27 -159 296 -217 367 -18 23 -33 47 -33 55
0 21 -71 123 -105 152 -44 36 -120 72 -205 96 -41 12 -80 24 -87 26 -8 3 -9
14 -3 37 4 18 16 70 26 115 l19 83 93 0 c225 0 425 101 541 274 75 111 109
190 125 291 3 17 10 59 16 95 6 36 11 70 9 75 -1 6 -1 37 0 71 l1 61 52 39
c59 44 86 87 103 159 28 120 -30 201 -159 219 -60 9 -90 22 -137 58 -34 26
-96 128 -105 173 -5 24 -39 115 -65 173 l-19 44 25 30 c89 106 113 249 65 393
-27 80 -98 191 -122 189 -10 -1 -16 3 -15 9 3 16 -148 76 -222 87 -79 12 -135
16 -176 13z m276 -570 c65 -70 110 -161 180 -360 41 -117 62 -156 112 -210 49
-54 98 -80 163 -89 83 -11 88 -13 112 -39 55 -64 1 -214 -88 -240 -48 -14 -50
-21 -50 -150 0 -67 -5 -136 -11 -153 -28 -82 -184 -81 -320 3 -48 30 -62 34
-79 25 -11 -6 -20 -15 -20 -20 0 -21 69 -71 140 -101 66 -29 86 -33 166 -34
l92 0 -25 -55 c-43 -98 -87 -161 -157 -226 -126 -115 -262 -166 -437 -163 -53
1 -102 -1 -108 -5 -15 -10 -60 -156 -67 -222 -6 -45 -10 -54 -23 -49 -9 3 -45
16 -81 30 -122 44 -255 75 -327 75 -18 0 -33 5 -33 10 0 6 4 10 9 10 5 0 30
21 56 48 129 128 218 344 243 587 9 90 8 334 -3 390 -3 17 -10 53 -15 80 -6
28 -12 61 -15 75 -5 29 -39 156 -66 249 -29 96 -28 97 35 93 64 -4 159 18 236
56 69 34 166 129 211 207 35 60 79 179 79 214 0 10 3 21 6 24 8 8 50 -22 85
-60z m-737 -2063 c75 -18 152 -38 172 -45 l37 -12 -54 -13 c-30 -7 -74 -21
-99 -32 -169 -75 -210 -100 -293 -177 l-47 -44 -68 31 c-60 27 -152 57 -207
68 -36 7 -80 22 -67 23 7 1 37 19 66 41 81 61 398 218 413 204 6 -6 73 -26
147 -44z m-674 -67 l99 -16 -40 -40 c-21 -22 -39 -49 -39 -60 0 -16 -5 -18
-32 -14 -18 4 -71 11 -118 18 -47 6 -86 13 -88 14 -2 2 18 31 44 65 31 41 51
59 61 56 8 -4 59 -14 113 -23z m1277 -227 c23 -8 67 -33 98 -56 30 -22 59 -39
64 -36 4 3 8 0 8 -7 0 -7 22 -47 50 -89 65 -98 180 -332 293 -593 32 -75 224
-462 251 -506 54 -89 190 -241 417 -466 l215 -212 -5 -50 c-13 -130 -155 -306
-313 -387 -94 -48 -104 -47 -198 17 -331 225 -748 636 -948 934 -29 44 -56 82
-59 85 -6 6 -44 77 -110 210 -48 95 -149 328 -167 385 -7 22 -16 30 -34 30
-21 0 -24 -4 -22 -36 3 -53 75 -244 148 -391 l62 -126 -45 -59 c-68 -87 -234
-273 -301 -338 -61 -59 -247 -205 -262 -205 -4 0 -2 21 6 48 37 126 107 541
129 762 12 117 16 158 26 255 6 55 13 118 16 140 12 95 16 392 5 412 -10 19
-4 28 56 82 116 107 261 190 367 211 61 11 205 4 253 -14z m-840 -191 c43 -28
28 -40 -50 -41 -155 -1 -255 -61 -351 -210 -79 -124 -143 -275 -181 -424 -8
-35 -25 -74 -36 -86 -48 -51 -192 -87 -289 -73 -70 10 -183 22 -202 21 -11 0
-18 7 -18 19 0 10 -5 19 -10 19 -7 0 -7 6 -1 18 10 18 13 18 123 1 160 -26
218 -25 288 7 39 17 60 33 63 47 99 421 296 714 496 736 59 7 126 -7 168 -34z
m-74 -465 c-2 -58 -30 -299 -49 -420 -9 -51 -44 -140 -56 -140 -10 0 -8 44 6
140 2 14 7 50 10 80 20 177 52 387 63 416 13 35 28 -9 26 -76z m-1197 -69 c16
-5 49 -12 74 -16 73 -9 75 -12 50 -91 -24 -81 -68 -194 -81 -210 -5 -6 -6 -14
-2 -17 3 -4 -5 -7 -18 -6 -35 0 -168 25 -176 32 -5 6 71 263 89 300 10 19 23
21 64 8z m666 -636 c-17 -129 -55 -359 -77 -465 -8 -41 -19 -100 -24 -130 -5
-30 -19 -98 -31 -150 -12 -52 -23 -104 -25 -115 -18 -93 -51 -185 -67 -185
-15 0 -8 60 32 275 5 28 18 102 30 165 12 63 23 130 25 149 2 18 7 41 10 51 5
14 32 153 39 200 2 8 5 29 9 45 3 17 9 51 12 77 6 51 39 169 58 206 21 43 25
-6 9 -123z m-865 -25 c190 -42 442 -90 473 -90 37 0 40 -30 15 -150 -43 -212
-96 -431 -133 -549 -35 -113 -52 -124 -177 -118 -111 6 -352 66 -450 112 -111
52 -168 121 -159 195 2 14 8 66 14 116 5 49 19 121 29 160 37 131 79 261 102
312 23 50 25 52 66 52 23 0 122 -18 220 -40z m2334 -311 c56 -71 78 -106 73
-118 -4 -9 -8 -52 -10 -96 -4 -114 -12 -202 -31 -348 -14 -107 -20 -129 -37
-141 -42 -27 -224 -84 -306 -96 -196 -28 -502 -3 -691 57 l-47 15 45 74 c30
50 51 74 63 74 11 0 57 14 104 31 217 78 432 257 688 571 35 42 64 77 65 78 2
0 39 -46 84 -101z m1481 -427 c96 -56 276 -234 367 -364 119 -171 140 -341 49
-400 -23 -15 -24 -15 -20 16 4 38 -49 209 -90 285 -34 65 -81 113 -103 105
-23 -9 -18 -30 25 -102 44 -75 64 -126 86 -222 28 -117 27 -139 -8 -171 -43
-41 -58 -38 -58 11 0 120 -129 370 -191 370 -32 0 -29 -15 20 -96 75 -125 133
-289 113 -321 -8 -12 -24 -16 -64 -14 -22 1 -32 10 -49 43 -79 156 -182 265
-322 341 -102 55 -128 76 -163 131 -13 21 -15 31 -6 34 33 11 163 105 211 153
64 65 101 118 127 181 10 27 21 48 24 48 3 0 26 -13 52 -28z"/>
<path d="M3934 11137 c-37 -21 -95 -77 -110 -105 -19 -37 -19 -143 0 -136 8 3
19 25 26 50 8 26 30 62 55 89 34 37 48 45 76 45 19 0 43 6 53 13 15 11 17 17
7 35 -13 25 -71 30 -107 9z"/>
<path d="M4010 10785 c-20 -24 -8 -159 17 -193 27 -37 65 -40 82 -8 17 30 11
139 -10 181 -17 35 -67 47 -89 20z"/>
<path d="M1321 7603 c-36 -69 -121 -369 -137 -483 -21 -158 -5 -174 286 -282
76 -28 330 -77 355 -68 11 4 23 20 26 36 4 16 25 101 47 189 51 196 88 355 97
415 4 25 11 52 16 61 9 17 -36 29 -241 64 -110 18 -181 32 -200 39 -8 3 -31 7
-50 10 -20 3 -65 12 -100 20 -82 20 -87 20 -99 -1z"/>
<path d="M1595 11880 c-3 -5 -1 -10 4 -10 6 0 11 5 11 10 0 6 -2 10 -4 10 -3
0 -8 -4 -11 -10z"/>
<path d="M9779 11546 c-2 -2 -68 -7 -147 -11 -79 -3 -153 -8 -165 -10 -12 -2
-58 -6 -102 -9 -44 -4 -168 -13 -275 -21 -256 -21 -428 -32 -575 -39 -66 -4
-174 -11 -240 -16 -66 -5 -172 -12 -235 -15 -63 -3 -133 -8 -155 -10 -42 -5
-104 -8 -420 -25 -104 -6 -215 -12 -245 -15 -194 -17 -410 -31 -695 -45 -263
-13 -587 -33 -975 -60 -157 -11 -345 -23 -418 -27 -92 -4 -136 -10 -143 -20
-6 -7 -18 -13 -26 -13 -11 0 -9 -5 6 -17 28 -24 37 -86 30 -198 -3 -49 -7
-182 -9 -295 -2 -113 -4 -254 -6 -315 -6 -285 -5 -919 3 -924 4 -3 8 -13 8
-21 0 -8 9 -15 20 -15 19 0 20 8 23 154 1 85 4 156 6 158 2 2 66 5 142 6 78 1
143 6 147 12 4 6 6 -65 4 -158 -2 -92 -6 -170 -9 -172 -4 -4 -208 -14 -383
-19 -37 -1 -50 -5 -53 -17 -2 -12 8 -18 39 -23 42 -7 696 -8 799 -1 30 2 312
6 625 9 314 4 640 9 725 11 85 3 391 7 680 10 490 5 738 10 1020 20 63 2 225
7 360 10 483 10 665 16 683 21 20 6 24 54 5 54 -10 0 -10 2 -1 8 9 6 12 236
11 992 -1 743 2 985 11 988 6 2 16 13 22 24 10 19 9 20 -15 16 -15 -3 -31 0
-37 8 -11 13 -31 18 -40 10z m-1304 -396 c4 -23 4 -103 0 -178 -11 -239 -13
-292 -20 -537 -4 -132 -9 -251 -11 -265 -2 -14 -7 -176 -10 -360 -4 -188 -11
-338 -16 -341 -5 -3 -75 -7 -155 -8 l-146 -2 7 508 c3 279 6 664 6 855 1 308
2 348 17 356 9 5 84 10 168 11 l153 2 7 -41z m965 -37 c3 -230 -3 -429 -13
-439 -6 -7 -276 -12 -282 -5 -4 3 -12 6 -18 6 -7 0 -11 11 -10 25 1 14 3 116
3 228 1 111 2 202 3 203 1 0 34 3 72 6 39 2 72 7 74 9 2 2 42 4 88 4 l83 0 0
-37z m-4346 -16 c17 -12 18 -31 18 -195 -1 -167 1 -182 17 -182 15 0 18 12 21
98 2 53 4 132 4 175 1 42 2 77 4 77 2 0 16 -7 32 -15 l30 -16 1 -162 c1 -89 1
-165 0 -169 0 -5 4 -8 9 -8 21 0 30 56 31 186 0 75 4 134 9 134 20 0 28 -42
34 -187 l6 -153 -33 0 c-18 0 -58 -4 -88 -9 -30 -5 -71 -12 -91 -15 l-38 -5 0
230 c0 126 4 229 8 229 5 0 16 -6 26 -13z m2300 -63 c3 -9 6 -42 6 -75 l0 -59
-135 -2 c-74 -1 -145 -2 -157 -2 -18 -1 -21 4 -21 32 1 17 2 52 2 77 l1 45
149 0 c127 0 150 -2 155 -16z m2126 -26 c0 -10 31 -13 122 -13 l123 0 2 -747
2 -747 -114 -3 c-63 -2 -124 -1 -136 2 l-21 5 1 550 c2 763 5 965 13 965 5 0
8 -6 8 -12z m-3481 -200 c-2 -90 -5 -188 -7 -218 l-4 -56 -101 -3 c-56 -1
-118 -4 -137 -4 l-35 -2 3 125 c2 69 5 148 7 175 2 28 4 69 5 92 l0 42 58 4
c31 2 92 4 135 5 l78 2 -2 -162z m312 51 c11 -5 18 -13 15 -17 -2 -4 -6 -37
-7 -73 l-3 -65 -129 0 -128 -1 5 111 c3 61 5 116 6 123 0 11 190 -50 241 -78z
m1707 -228 c-1 -148 -5 -271 -8 -274 -3 -3 -56 -8 -119 -12 l-114 -7 6 23 c4
13 7 137 7 276 l0 252 88 4 c48 1 100 4 115 5 l29 2 -4 -269z m-663 -43 c-4
-145 -10 -272 -12 -283 -3 -11 -6 -209 -7 -440 l-2 -419 -153 -1 -153 -1 6
496 c6 482 15 890 21 900 2 3 72 6 155 8 l152 2 -7 -262z m240 171 l137 0 -6
-192 c-3 -106 -11 -327 -16 -492 -5 -165 -12 -369 -15 -454 -2 -85 -7 -156
-10 -159 -3 -3 -65 -8 -139 -10 l-133 -4 -7 73 c-7 71 1 826 9 838 2 4 5 94 6
201 2 181 8 218 30 204 4 -2 69 -4 144 -5z m-1949 -156 c-3 -87 -9 -295 -12
-463 -4 -257 -11 -616 -13 -697 -1 -21 -5 -22 -136 -25 -132 -3 -136 -2 -131
17 3 11 7 90 10 175 4 85 9 214 11 285 5 130 14 433 20 685 2 74 4 143 4 152
1 15 14 18 89 21 48 1 105 4 126 5 l39 2 -7 -157z m1005 144 c1 -6 1 -16 0
-21 -4 -21 -15 -742 -16 -998 l0 -288 -35 -1 c-19 0 -86 -3 -147 -5 -67 -3
-113 0 -113 5 0 5 4 11 9 13 10 3 26 681 26 1083 l0 220 138 2 c102 2 137 0
138 -10z m2044 -257 c-14 -831 -18 -1005 -21 -1008 -1 -2 -53 -6 -114 -9
l-112 -6 6 179 c3 99 9 301 12 449 4 149 8 290 9 315 2 25 4 108 4 185 l1 140
110 0 110 0 -5 -245z m-1717 -5 c-2 -1 -63 -5 -136 -7 l-132 -5 1 108 1 108
131 3 132 3 3 -104 c1 -57 1 -105 0 -106z m-664 108 c-8 -423 -15 -784 -20
-947 -5 -145 -4 -197 5 -192 7 5 9 1 5 -8 -5 -13 -29 -16 -147 -16 l-140 0 8
233 c4 127 8 268 10 312 2 44 6 188 10 320 6 242 11 341 19 353 2 4 60 8 128
10 l123 3 -1 -68z m-988 -113 c-3 -74 -9 -227 -12 -340 -6 -207 -10 -317 -13
-335 0 -6 -58 -9 -156 -7 -86 2 -153 7 -150 11 5 9 14 380 16 644 0 97 4 137
12 138 7 1 23 3 37 4 26 3 83 15 86 18 2 1 44 2 94 2 l92 0 -6 -135z m4070
103 l-1 -38 -158 -5 -157 -5 0 33 0 32 68 0 c70 0 174 10 181 16 2 2 19 4 36
4 31 0 32 -2 31 -37z m-380 -60 c-3 -37 -8 -284 -12 -548 -4 -339 -10 -482
-18 -487 -6 -4 -62 -8 -125 -8 l-114 0 7 518 c5 284 8 528 8 542 -1 14 0 30 2
35 2 6 57 11 130 13 l126 3 -4 -68z m373 -334 c-1 -178 -1 -407 0 -509 l2
-185 -143 -3 c-79 -2 -151 -5 -162 -8 -18 -6 -18 9 -12 497 l7 504 112 -2
c117 -1 187 5 185 16 -1 14 2 24 7 19 3 -3 5 -151 4 -329z m-3405 178 l-7
-107 -101 -1 c-56 0 -117 -1 -136 -3 l-35 -3 3 106 c2 58 5 107 5 108 1 1 58
4 127 8 69 4 127 9 129 11 15 15 20 -26 15 -119z m992 24 c-3 -20 -5 -41 -6
-46 0 -6 -12 -10 -27 -9 -16 1 -75 3 -133 3 l-106 1 2 28 c1 15 2 32 3 39 1 9
33 13 109 15 59 2 120 3 135 4 27 1 28 -1 23 -35z m-6 -356 l0 -265 -82 -1
c-46 -1 -107 -2 -136 -3 l-52 -1 1 258 0 257 67 1 c111 3 174 7 180 13 19 19
22 -20 22 -259z m1040 98 l0 -153 -121 0 -122 0 7 38 c3 20 6 89 6 152 l0 115
115 0 115 0 0 -152z m-2035 14 c-2 -34 -7 -152 -10 -262 -4 -110 -8 -229 -10
-265 -3 -36 -5 -93 -5 -127 l0 -63 -135 0 c-103 0 -133 3 -130 13 2 6 6 178
10 382 3 203 7 370 8 372 1 1 43 3 93 4 50 1 109 5 130 9 21 3 42 5 46 3 4 -2
6 -32 3 -66z m2033 -457 c-2 -126 -5 -230 -8 -231 -3 0 -57 0 -120 -1 l-115
-1 2 184 c1 101 3 205 3 232 l0 47 120 0 120 0 -2 -230z m-1048 -116 l0 -134
-130 0 -130 0 0 138 0 137 130 -3 130 -3 0 -135z"/>
<path d="M1483 11471 c-1 -14 3 -17 18 -14 10 3 19 10 19 15 0 5 -4 6 -10 3
-5 -3 -10 -1 -10 4 0 19 -16 12 -17 -8z"/>
<path d="M1487 11443 c-4 -3 -7 -14 -7 -24 0 -13 5 -16 16 -12 13 5 13 7 2 14
-10 7 -10 9 0 9 6 0 12 5 12 10 0 11 -13 13 -23 3z"/>
<path d="M4722 9943 c2 -18 1 -34 -3 -35 -5 -2 -10 -99 -13 -215 -4 -161 -2
-213 7 -213 9 0 9 -2 1 -8 -9 -5 -11 -115 -10 -394 0 -214 3 -388 6 -388 3 0
4 -58 2 -128 -2 -102 0 -131 11 -141 12 -9 16 -8 21 4 3 9 0 15 -9 15 -8 0
-15 5 -15 11 0 5 5 7 10 4 9 -6 11 -1 14 35 1 8 -5 18 -14 22 -12 5 -12 7 3 7
17 1 20 26 18 146 0 22 0 47 0 55 7 84 7 1232 0 1221 -7 -11 -10 -11 -17 0 -4
7 -3 14 4 17 17 5 15 19 -4 19 -12 0 -15 -8 -12 -34z m28 -307 c0 -2 -7 -6
-15 -10 -8 -3 -15 -1 -15 4 0 6 7 10 15 10 8 0 15 -2 15 -4z m-20 -106 c0 -5
-2 -10 -4 -10 -3 0 -8 5 -11 10 -3 6 -1 10 4 10 6 0 11 -4 11 -10z m4 -955 c3
-8 1 -15 -4 -15 -6 0 -10 7 -10 15 0 8 2 15 4 15 2 0 6 -7 10 -15z"/>
<path d="M9428 9165 c-1 -1 -399 -6 -883 -9 -484 -4 -920 -9 -970 -11 -49 -2
-322 -6 -605 -10 -487 -5 -748 -9 -1440 -20 -162 -3 -368 -5 -457 -5 l-163 0
7 -137 c4 -76 7 -360 6 -630 0 -409 2 -490 13 -475 11 15 12 12 7 -23 -3 -22
-11 -47 -16 -55 -10 -13 -9 -13 5 0 22 21 35 83 37 176 1 43 4 108 7 144 3 36
8 200 11 365 3 165 6 301 7 302 1 1 17 4 35 5 l33 3 -2 -157 c-1 -134 1 -158
14 -158 8 0 17 3 19 8 3 4 8 66 11 137 7 138 12 166 30 177 32 21 34 9 28
-197 -4 -166 -2 -208 9 -222 9 -11 10 -14 2 -9 -7 4 -13 2 -13 -3 0 -23 22 -9
35 21 8 21 10 39 4 50 -5 9 -5 18 0 20 5 2 12 77 16 168 4 91 9 168 12 173 2
4 18 7 35 7 l31 0 -7 -187 c-4 -104 -9 -421 -12 -705 l-4 -518 25 -6 c14 -4
28 -5 30 -3 7 8 14 210 16 501 1 164 4 309 6 322 5 24 7 24 118 24 l113 0 -4
-181 c-2 -100 -6 -234 -9 -297 -2 -63 -5 -179 -5 -258 l0 -144 -133 7 c-114 5
-136 4 -147 -10 -16 -20 -8 -28 29 -29 16 -1 27 -4 24 -8 -2 -5 2 -8 9 -9 35
-1 261 -10 523 -19 489 -17 589 -22 597 -26 3 -2 161 -7 350 -10 188 -3 345
-7 348 -9 3 -1 142 -5 310 -9 303 -6 519 -12 740 -21 63 -3 210 -7 325 -10
116 -3 262 -8 325 -10 63 -3 301 -8 528 -11 l413 -5 14 34 c12 28 14 184 12
985 -1 627 1 953 8 956 6 3 3 9 -5 15 -13 10 -391 16 -402 6z m-2567 -400 c-2
-66 -4 -121 -5 -121 0 -1 -71 -4 -156 -5 -149 -4 -155 -3 -154 16 1 11 2 69 2
128 l2 108 158 -3 157 -3 -4 -120z m1849 -82 l0 -168 -177 5 -178 5 0 157 c0
132 2 158 15 161 8 1 88 4 178 5 l162 3 0 -168z m-1092 121 c41 -5 42 -6 42
-42 0 -20 -3 -54 -6 -74 l-7 -38 -163 0 -164 0 1 78 c1 42 3 80 5 84 4 6 219
1 292 -8z m-1179 -43 l44 -1 -7 -292 c-4 -161 -9 -444 -12 -628 -3 -184 -7
-375 -8 -425 l-3 -90 -32 1 c-17 0 -64 1 -103 2 l-73 2 2 112 c1 62 7 235 13
383 5 149 13 418 16 599 3 182 7 333 9 336 2 3 28 5 57 4 29 -2 73 -3 97 -3z
m2688 -267 c-3 -136 -8 -249 -11 -252 -4 -3 -6 2 -6 11 0 18 -23 20 -253 20
l-87 0 2 226 c1 124 3 229 5 234 2 4 83 7 180 7 l176 0 -6 -246z m78 196 c3
-5 1 -10 -4 -10 -6 0 -11 5 -11 10 0 6 2 10 4 10 3 0 8 -4 11 -10z m-3351
-270 c-3 -243 -9 -414 -19 -635 -9 -186 -14 -310 -15 -378 l0 -68 -62 5 c-35
2 -80 5 -100 5 l-36 1 3 123 c2 67 7 255 11 417 3 162 8 360 10 440 2 80 3
189 4 242 l0 97 38 3 c20 2 67 3 103 3 l67 0 -4 -255z m-271 46 c-3 -94 -7
-172 -8 -174 -6 -7 -216 -5 -222 2 -8 8 -5 327 3 335 7 7 181 17 211 12 22 -3
22 -4 16 -175z m3779 164 l27 0 -4 -122 c-3 -68 -7 -244 -10 -393 -3 -148 -8
-313 -10 -365 -9 -179 -14 -335 -15 -422 l0 -88 -97 0 -96 0 6 263 c4 144 9
323 12 397 2 74 7 259 11 410 5 244 8 315 13 329 0 2 31 1 69 -2 37 -4 79 -7
94 -7z m-1769 -40 l57 0 0 -51 c0 -36 -3 -48 -12 -43 -14 9 -66 12 -215 13
l-103 1 0 38 c0 21 2 41 4 43 2 2 51 3 108 2 56 -1 129 -2 161 -3z m-737 -63
c0 -44 -2 -57 -13 -53 -7 3 -13 0 -13 -7 0 -9 -2 -9 -8 1 -7 10 -41 11 -145 7
l-137 -5 0 55 0 54 123 3 c67 2 138 3 157 3 l35 0 1 -58z m1054 29 c30 -8 68
-19 83 -25 l28 -11 -6 -182 c-3 -101 -7 -223 -10 -273 -2 -49 -7 -178 -11
-285 -3 -107 -7 -233 -9 -280 -1 -47 -3 -115 -4 -152 l-1 -66 -91 2 -92 3 0
84 c0 92 13 691 19 859 2 58 3 160 4 227 0 110 2 121 18 117 9 -2 42 -10 72
-18z m-1700 -166 l0 -128 -142 5 c-79 3 -144 6 -145 7 -2 2 -5 105 -4 178 l1
67 123 3 c185 4 167 18 167 -132z m1021 71 l25 -1 -3 -132 c-2 -73 -8 -174
-12 -224 -8 -96 -13 -301 -15 -617 l-1 -189 -124 5 c-68 3 -126 8 -128 11 -8
8 19 1169 26 1171 1 0 47 -5 104 -12 56 -6 114 -12 128 -12z m1279 0 c69 1
141 2 160 3 35 1 35 1 38 -48 l3 -49 -38 6 c-21 4 -102 7 -180 7 l-143 0 0 46
c0 40 2 45 18 39 9 -4 73 -6 142 -4z m-860 -51 c0 -35 -3 -40 -22 -40 -70 -1
-276 -9 -292 -12 -20 -3 -22 4 -17 70 1 22 2 22 166 22 l165 0 0 -40z m-804
-237 c-3 -148 -9 -399 -13 -560 -3 -161 -9 -296 -12 -300 -10 -13 -306 0 -304
14 2 6 5 184 9 395 3 211 7 435 9 498 2 63 4 134 4 158 l1 42 138 0 c75 0 144
5 152 10 8 5 17 10 19 10 2 0 1 -120 -3 -267z m2910 140 c-3 -70 -5 -145 -6
-165 l0 -37 -154 -3 -155 -3 2 160 2 160 75 5 c41 3 113 6 159 8 l83 3 -6
-128z m-1497 108 l33 -1 -6 -72 c-3 -40 -8 -190 -11 -333 -3 -143 -8 -309 -10
-370 -3 -60 -6 -170 -7 -242 l-2 -133 -27 0 c-14 0 -61 3 -104 7 l-78 6 7 276
c10 430 17 662 21 716 2 28 4 74 5 103 l0 53 73 -5 c39 -2 87 -5 106 -5z
m-652 -111 c34 0 41 -3 38 -17 -4 -20 -15 -527 -15 -701 l0 -113 -165 2 -165
2 -1 61 c-5 174 11 748 20 758 6 7 190 16 226 11 11 -1 39 -3 62 -3z m1092 1
c7 -5 9 -57 7 -156 -2 -83 -4 -192 -5 -243 l-1 -94 -67 6 c-38 3 -119 6 -182
7 l-114 1 6 202 c4 110 7 220 7 244 l0 43 169 -2 c93 -1 174 -4 180 -8z
m-2498 -84 c-10 -9 -11 -8 -5 6 3 10 9 15 12 12 3 -3 0 -11 -7 -18z m2918 -46
l2 -48 -153 4 c-84 2 -163 3 -175 3 -20 0 -23 5 -23 41 l0 40 165 -2 c91 -1
168 0 172 4 3 4 7 7 8 7 1 0 2 -22 4 -49z m-2956 31 l48 -2 -3 -57 -3 -58
-147 -3 -148 -3 0 63 0 63 103 0 c56 -1 124 -2 150 -3z m2952 -169 c-2 -32 -6
-141 -10 -243 -4 -102 -8 -232 -11 -290 -2 -58 -4 -141 -4 -186 l0 -80 -72 2
c-40 1 -117 2 -171 3 l-98 1 5 43 c3 23 6 188 7 367 2 179 4 348 7 375 l4 50
154 -3 c89 -1 162 2 172 8 9 5 18 10 19 10 0 0 0 -26 -2 -57z m638 -84 c2 -57
7 -111 12 -118 5 -9 4 -12 -2 -8 -6 4 -10 -97 -9 -296 l1 -302 -110 1 c-207 3
-236 4 -232 12 3 4 8 124 12 267 4 143 8 285 10 315 2 30 4 65 4 77 1 21 5 22
104 25 78 2 101 6 99 16 -1 8 2 11 8 7 6 -3 8 -11 5 -16 -4 -5 10 -9 30 -9 31
0 36 3 31 18 -5 14 -3 13 10 -3 15 -20 16 -19 12 5 -3 28 10 26 -190 30 l-108
2 0 37 0 36 150 -2 c101 -1 150 2 150 10 0 5 2 8 5 6 2 -3 6 -52 8 -110z
m-3559 -111 c-3 -117 -8 -224 -9 -238 -2 -14 -3 -83 -4 -153 l-1 -128 -162 6
c-89 3 -164 8 -167 12 -3 3 2 3 11 0 23 -8 26 14 33 238 9 315 17 450 26 460
6 6 9 6 9 0 0 -6 52 -9 130 -7 73 2 130 7 130 13 0 5 3 9 6 9 3 0 2 -96 -2
-212z m2394 -75 l113 2 -2 -51 c-2 -50 -3 -51 -26 -39 -13 7 -74 13 -145 14
-68 2 -134 4 -148 6 -14 2 -31 4 -37 4 -8 1 -11 10 -9 24 3 12 5 29 5 38 1 13
11 14 69 8 37 -4 118 -6 180 -6z m104 -148 c2 -11 2 -98 0 -192 l-3 -173 -87
0 c-48 0 -130 3 -183 6 l-96 7 3 61 c2 34 6 117 8 186 3 69 5 125 5 126 1 0
80 0 176 0 166 -1 174 -2 177 -21z m-1227 -208 c72 0 136 3 142 6 16 10 23
-17 23 -80 l0 -56 -172 8 c-95 3 -173 7 -173 8 -1 1 1 30 3 65 4 58 5 62 24
56 12 -3 80 -7 153 -7z"/>
<path d="M5477 7034 c-11 -11 -8 -44 4 -44 6 0 8 -7 5 -16 -12 -32 23 -73 92
-107 144 -72 288 -150 304 -165 17 -17 35 -87 40 -158 2 -38 24 -54 71 -53 12
0 67 -6 122 -13 l100 -14 -1 -29 c0 -17 -4 -147 -8 -290 -9 -338 -14 -480 -22
-700 -4 -99 -8 -202 -8 -228 l-1 -49 -105 8 c-58 3 -112 8 -120 10 -8 1 -28 3
-45 3 -19 1 -25 4 -17 9 10 7 14 103 18 428 5 379 4 421 -11 439 -9 11 -14 14
-10 8 3 -7 2 -13 -3 -13 -18 0 -32 -168 -38 -450 -6 -256 -9 -357 -13 -399 -1
-16 -92 -12 -321 14 -74 8 -157 15 -183 15 l-48 0 5 48 c3 26 8 160 11 299 5
224 4 253 -11 268 -9 9 -19 13 -23 9 -3 -4 0 -9 6 -11 10 -4 10 -8 -1 -18 -8
-8 -14 -41 -15 -82 -1 -37 -4 -81 -6 -98 -1 -16 -6 -93 -10 -170 -4 -77 -9
-151 -10 -165 -2 -14 -4 -36 -4 -49 l-1 -23 -97 6 c-54 4 -112 10 -129 12
l-32 6 4 306 c4 294 0 377 -16 367 -4 -2 -5 8 -2 23 5 32 -12 20 -23 -15 -4
-16 -2 -23 7 -23 10 0 10 -2 -1 -9 -10 -7 -15 -45 -19 -151 -4 -116 -2 -141 8
-135 9 5 11 4 6 -4 -4 -6 -11 -9 -16 -6 -11 7 -18 -373 -8 -396 6 -13 28 -18
100 -23 51 -4 136 -11 188 -16 52 -5 129 -12 170 -15 41 -3 120 -10 175 -15
142 -13 777 -65 935 -75 191 -14 238 -18 547 -51 84 -9 170 -14 192 -12 22 2
38 1 35 -3 -2 -3 61 -12 139 -18 78 -6 189 -16 247 -21 104 -10 277 -26 378
-35 38 -4 52 -2 52 7 0 10 2 10 8 1 8 -13 63 -21 190 -28 52 -3 97 -7 100 -9
7 -4 88 -10 277 -21 55 -4 147 -11 205 -16 204 -19 315 -29 355 -33 22 -3 81
-7 130 -11 210 -14 295 -21 435 -40 55 -7 92 14 70 40 -19 23 -14 1898 6 1992
3 15 9 20 19 17 8 -4 15 -1 15 5 0 6 -5 11 -12 11 -6 0 -19 6 -27 14 -18 16
-108 23 -391 31 -102 3 -230 7 -285 10 -110 5 -307 12 -639 21 -121 3 -227 7
-235 9 -9 2 -113 6 -231 9 -118 4 -258 8 -310 11 -114 5 -342 13 -620 20 -113
3 -311 10 -440 15 -129 5 -332 12 -450 15 -118 4 -226 8 -240 10 -52 8 -506
15 -513 9z m1751 -293 c1 -1 2 -43 2 -95 0 -59 4 -97 11 -102 16 -10 -7 -22
-69 -35 -29 -6 -65 -17 -80 -25 -15 -8 -37 -14 -50 -14 -22 0 -22 1 -20 133 2
73 7 136 13 140 7 6 170 4 193 -2z m-273 -26 c-2 -11 -7 -119 -10 -239 -4
-156 -9 -222 -17 -227 -7 -5 -15 -4 -18 1 -7 11 -263 15 -300 6 -24 -7 -25 -5
-24 34 1 22 2 132 3 245 l1 204 185 -2 c178 -2 184 -3 180 -22z m1165 -28
c-19 -5 -59 -17 -88 -28 -56 -20 -144 -27 -126 -10 19 19 173 57 211 52 l38
-4 -35 -10z m280 -28 c0 -10 -120 -47 -176 -54 -33 -4 -54 -3 -59 4 -3 7 2 11
14 11 11 0 22 4 26 10 3 5 12 7 20 3 8 -3 15 0 15 7 0 6 3 9 8 7 4 -3 20 0 35
6 30 13 117 17 117 6z m-367 -81 l72 -3 5 -40 c8 -62 -14 -435 -25 -436 -19
-3 -240 12 -270 17 -30 5 -30 7 -29 57 1 29 3 115 5 192 1 77 5 163 7 191 l4
50 80 -12 c44 -7 112 -15 151 -16z m1217 7 c-7 -8 -16 -12 -21 -9 -5 3 -9 0
-9 -7 0 -6 -8 -9 -18 -7 -10 3 -23 -1 -30 -9 -7 -7 -24 -13 -37 -13 -13 0 -27
-5 -30 -11 -4 -5 -19 -8 -33 -5 -15 4 -48 7 -75 8 -65 2 -60 5 58 33 11 3 45
11 75 19 30 8 72 14 94 15 33 1 37 -1 26 -14z m-2724 -37 c-3 -13 -8 -176 -11
-363 -3 -187 -7 -392 -10 -455 -3 -63 -5 -221 -5 -351 l0 -237 -32 4 c-52 5
-160 13 -195 13 l-32 1 4 73 c5 109 15 452 20 722 6 306 15 545 21 567 6 22
53 32 134 30 36 -1 72 2 80 8 24 16 33 12 26 -12z m1078 -17 c-5 -4 -25 -14
-44 -21 -40 -15 -89 -35 -138 -56 -22 -10 -67 -14 -138 -13 -98 1 -130 9 -66
16 15 2 81 19 147 38 66 18 129 36 140 38 36 7 108 6 99 -2z m122 -72 c-3 -17
-6 -47 -6 -65 0 -31 -2 -33 -27 -28 -16 3 -75 8 -133 12 l-105 7 130 52 c72
29 134 53 139 53 5 0 6 -14 2 -31z m1294 17 c33 -1 37 -19 28 -135 -4 -53 -9
-172 -12 -266 -3 -93 -8 -210 -11 -260 -4 -49 -8 -137 -9 -195 -2 -58 -4 -110
-5 -116 -1 -8 -12 -9 -34 -4 -19 4 -71 8 -117 9 -47 1 -86 4 -89 6 -4 5 -1
403 4 540 9 238 17 383 21 407 l6 28 96 -6 c53 -4 108 -7 122 -8z m-298 -86
l-4 -30 -87 6 c-127 10 -141 20 -36 28 72 6 119 15 131 25 0 1 -1 -12 -4 -29z
m-1536 4 l122 -7 -3 -131 c-2 -72 -8 -225 -14 -341 -14 -282 -25 -618 -26
-738 l0 -98 -55 5 c-30 3 -97 8 -147 12 -59 4 -93 10 -94 18 -3 58 10 428 26
697 2 36 7 186 11 333 l7 268 26 -6 c14 -3 81 -9 147 -12z m2564 -63 c0 -38
-2 -40 -27 -37 -16 2 -63 4 -105 5 -45 1 -78 5 -78 11 0 6 8 10 18 11 9 0 49
11 87 24 100 33 105 33 105 -14z m-1412 3 c67 -4 124 -10 126 -13 2 -3 0 -44
-4 -91 -5 -47 -11 -168 -14 -270 -4 -102 -9 -219 -11 -260 -3 -41 -7 -145 -10
-230 -2 -85 -7 -231 -11 -323 l-7 -168 -66 5 c-36 3 -97 9 -135 12 l-69 7 7
301 c3 166 8 344 11 396 6 109 14 432 15 564 0 86 0 88 23 83 12 -3 77 -9 145
-13z m-645 -24 l29 0 -6 -167 c-4 -93 -9 -208 -11 -258 -5 -95 -17 -583 -19
-747 l-1 -98 -30 0 c-16 0 -68 4 -115 10 -47 5 -115 12 -153 15 -37 4 -65 10
-63 13 2 4 7 90 10 192 3 102 8 226 11 275 4 84 8 167 20 450 3 61 8 159 11
219 l6 108 142 -6 c77 -3 154 -6 169 -6z m1018 -22 c4 -6 6 -15 5 -18 -2 -3
-7 -142 -11 -310 -3 -168 -8 -336 -10 -375 -1 -38 -3 -195 -4 -349 l-1 -279
-87 6 c-49 4 -97 7 -107 7 -18 0 -19 9 -12 258 3 141 9 277 11 302 4 45 9 172
20 550 4 113 9 211 11 219 4 11 22 13 91 8 52 -4 89 -11 94 -19z m759 -17 c0
-14 53 -23 164 -26 55 -2 104 -4 108 -4 7 -1 11 -811 3 -811 -2 0 -12 -3 -22
-6 -14 -5 -15 -4 -4 4 20 14 -44 23 -182 25 l-108 2 5 135 c11 287 20 577 20
633 0 31 4 57 8 57 4 0 8 -4 8 -9z m-2697 -66 l168 0 -3 -60 -3 -60 -80 3
c-44 1 -89 4 -100 6 -11 3 -55 5 -97 5 l-78 1 0 39 c0 21 3 54 7 72 5 27 8 30
12 14 6 -19 15 -20 174 -20z m2617 -23 l0 -39 -82 4 c-46 3 -90 7 -98 10 -11
4 133 56 173 62 4 0 7 -16 7 -37z m-114 -88 l112 -7 -4 -61 c-2 -33 -6 -95 -9
-136 -2 -41 -8 -203 -11 -360 -4 -157 -8 -297 -9 -312 -1 -16 -2 -93 -3 -173
l-2 -144 -27 4 c-41 7 -140 14 -202 14 l-53 1 6 248 c8 334 18 624 22 642 1 8
3 80 3 159 l1 143 33 -6 c17 -3 82 -8 143 -12z m-1259 -54 l85 0 -6 -37 c-3
-21 -5 -48 -6 -61 0 -19 -3 -21 -20 -12 -10 5 -54 13 -97 16 -43 3 -96 7 -118
9 -22 2 -48 4 -57 4 -15 1 -18 10 -18 47 l0 47 77 -7 c42 -3 114 -6 160 -6z
m-1139 -10 l54 0 -6 -117 c-3 -65 -9 -199 -12 -298 -6 -161 -8 -213 -13 -280
-1 -14 -4 -16 -9 -7 -11 17 -33 20 -186 28 -72 3 -132 7 -134 9 -5 5 -3 366 4
519 l7 159 120 -7 c66 -3 145 -6 175 -6z m1093 -145 c83 -5 108 -3 113 7 6 12
4 -99 -10 -677 -5 -209 -5 -210 -27 -208 -12 1 -84 7 -159 14 l-137 12 4 141
c2 78 7 258 11 401 4 143 7 275 8 293 1 32 1 32 46 27 25 -2 93 -7 151 -10z
m978 -437 l62 -1 -3 -146 -3 -146 -35 4 c-19 2 -74 6 -123 10 -48 3 -87 9 -87
14 0 4 0 68 0 143 l0 135 64 -6 c35 -4 91 -7 125 -7z m645 -52 c88 -3 142 -10
146 -17 4 -6 6 -25 4 -43 -1 -17 -3 -37 -3 -45 -1 -9 -10 -12 -33 -7 -18 3
-87 8 -153 12 -66 3 -121 7 -122 7 -2 2 -5 97 -4 116 1 12 3 12 14 -1 9 -13
41 -17 151 -22z m-2781 -101 l87 0 0 -87 c0 -48 -4 -90 -10 -93 -5 -3 -56 -1
-113 5 -58 6 -122 13 -143 15 -22 1 -45 3 -51 4 -9 1 -13 25 -13 86 l0 85 78
-8 c42 -4 116 -7 165 -7z m2795 -62 l132 -6 1 -66 c1 -36 2 -111 3 -166 0 -55
5 -106 10 -114 7 -12 -6 -13 -85 -7 -120 9 -176 15 -217 22 l-34 5 3 167 c1
92 4 171 7 175 2 5 14 6 26 2 11 -4 81 -9 154 -12z m-695 -124 l87 -1 0 -90 0
-89 -57 6 c-32 4 -71 8 -88 10 -16 2 -46 4 -66 4 l-36 1 2 48 c2 26 4 64 4 86
1 38 2 38 34 32 17 -3 71 -6 120 -7z"/>
<path d="M4665 6248 c3 -12 0 -27 -6 -35 -6 -7 -9 -29 -7 -48 2 -19 1 -35 -3
-35 -3 0 -7 -48 -8 -107 -1 -60 -3 -142 -4 -183 -2 -41 1 -81 6 -87 6 -9 5
-13 -2 -13 -15 0 -11 -72 3 -82 7 -5 7 -8 -1 -8 -9 0 -12 -69 -12 -285 0 -157
4 -283 9 -280 4 3 10 -2 13 -10 4 -9 1 -12 -7 -9 -13 5 -14 -23 -7 -103 0 -7
9 -13 19 -13 15 0 17 14 19 148 1 81 5 182 8 225 5 59 3 77 -7 77 -10 0 -10 2
-1 8 9 6 13 84 13 312 1 481 1 482 -10 475 -5 -3 -10 -2 -10 4 0 5 5 11 11 13
6 2 8 14 4 31 -8 32 -26 37 -20 5z m-5 -1042 c0 -3 -4 -8 -10 -11 -5 -3 -10
-1 -10 4 0 6 5 11 10 11 6 0 10 -2 10 -4z"/>
<path d="M3851 5872 c-5 -10 -21 -65 -36 -123 -14 -57 -30 -117 -36 -134 -62
-195 -111 -344 -118 -360 -5 -11 -21 -54 -36 -95 -15 -41 -47 -125 -71 -186
-24 -62 -44 -115 -44 -118 0 -3 -9 -26 -20 -51 -36 -80 -57 -128 -105 -239
l-47 -109 35 -91 c19 -50 49 -131 67 -181 17 -49 35 -99 40 -110 61 -143 181
-497 280 -825 34 -112 82 -254 89 -260 3 -3 7 -15 8 -27 2 -20 101 -318 143
-428 10 -27 26 -71 35 -98 12 -34 23 -49 41 -53 26 -7 215 14 251 27 22 8 33
-4 33 -41 0 -33 49 -189 89 -282 62 -144 133 -264 162 -273 24 -8 208 67 329
134 105 58 105 58 106 97 0 36 3 39 51 60 28 13 94 48 147 78 53 31 99 56 102
56 2 0 21 11 42 24 156 98 216 143 281 208 111 112 142 179 121 258 -9 33 -18
44 -45 56 -37 15 -148 21 -205 10 -77 -14 -224 -75 -397 -163 -177 -90 -183
-92 -183 -68 0 15 -9 31 -25 41 -23 15 -27 14 -87 -19 -127 -69 -285 -115
-303 -87 -3 5 2 10 12 10 32 0 235 105 358 184 66 43 130 84 141 92 12 7 51
38 87 69 51 43 68 64 73 90 4 21 2 41 -5 48 -6 8 -20 45 -32 83 -12 38 -25 74
-29 79 -4 6 -11 21 -15 35 -4 14 -15 43 -25 65 -10 22 -30 69 -44 105 -15 36
-31 74 -36 85 -21 48 -76 181 -135 325 -183 452 -218 536 -274 664 -70 158
-260 566 -271 581 -4 6 -59 111 -122 235 -63 124 -133 257 -154 296 -21 39
-72 132 -113 208 -41 75 -80 136 -87 136 -7 0 -18 -8 -23 -18z"/>
<path d="M5551 5818 c-1 -29 -3 -69 -6 -88 -2 -19 -9 -118 -14 -220 -6 -102
-12 -205 -13 -230 -2 -42 -1 -45 25 -48 15 -2 27 0 28 5 0 4 3 17 6 28 2 11 7
144 9 295 5 266 4 277 -15 294 -19 18 -20 17 -20 -36z"/>
<path d="M4895 4970 c-4 -6 -2 -16 3 -23 7 -8 7 -51 1 -122 -9 -125 -5 -598 6
-633 11 -32 37 -24 41 13 1 17 5 168 8 338 3 169 9 308 13 308 4 1 18 -18 30
-42 19 -36 23 -65 27 -168 3 -80 9 -127 16 -131 9 -6 9 -9 -1 -13 -10 -4 -11
-6 -1 -6 19 -1 31 41 34 119 l3 70 62 -6 c35 -4 91 -12 125 -18 l63 -11 0
-125 c0 -69 -4 -208 -8 -310 -16 -401 -19 -690 -7 -690 6 0 8 -4 5 -10 -3 -5
-1 -10 4 -10 6 0 10 10 10 23 0 12 4 40 9 62 6 22 13 108 17 190 4 83 8 152
10 155 3 5 16 291 20 425 2 103 0 97 38 93 27 -3 32 -7 30 -28 -2 -43 -17
-908 -18 -1047 l0 -132 -37 6 c-26 4 -38 2 -38 -6 0 -7 -4 -10 -9 -6 -5 3 -12
1 -16 -4 -14 -24 68 -50 205 -66 30 -4 120 -17 200 -30 80 -13 228 -36 330
-50 102 -14 239 -35 305 -45 66 -11 176 -28 245 -39 69 -11 141 -23 160 -26
70 -10 368 -56 485 -75 66 -10 138 -21 160 -24 22 -3 56 -7 75 -10 19 -3 100
-15 180 -26 209 -30 239 -34 365 -50 50 -6 169 -23 265 -37 338 -48 904 -123
1055 -138 28 -3 60 -8 73 -11 12 -2 46 -7 75 -9 29 -3 75 -9 104 -13 31 -5 58
-5 69 1 11 6 15 6 10 -1 -10 -17 67 -21 80 -4 6 9 11 59 12 116 3 488 14 1358
18 1471 7 151 6 306 -1 314 -3 2 0 10 6 17 15 18 -2 25 -74 29 -97 6 -413 34
-512 45 -49 5 -126 12 -170 15 -44 3 -91 8 -105 10 -14 3 -90 9 -170 15 -144
10 -197 15 -255 25 -31 5 -43 6 -325 30 -96 9 -197 18 -225 20 -27 3 -124 12
-215 20 -91 8 -190 18 -220 21 -81 8 -123 12 -245 24 -60 6 -132 13 -160 16
-27 3 -97 9 -155 14 -58 5 -150 14 -205 19 -55 6 -127 13 -160 16 -33 3 -103
9 -155 15 -52 5 -142 14 -200 20 -58 5 -168 16 -245 24 -77 8 -176 17 -220 21
-44 3 -118 10 -165 15 -47 5 -110 12 -140 15 -30 2 -170 16 -310 30 -296 29
-277 28 -285 15z m680 -178 c29 -8 28 -9 -35 -30 -141 -47 -186 -53 -302 -40
-60 7 -105 15 -100 19 4 4 59 17 122 29 63 12 121 26 130 31 16 10 134 4 185
-9z m555 -210 c0 -5 -19 -14 -42 -21 -24 -7 -93 -33 -154 -57 -61 -24 -124
-44 -141 -44 -52 0 -153 13 -153 19 0 3 35 16 78 29 42 13 100 30 127 38 28 9
70 21 95 29 50 15 190 20 190 7z m264 -29 c4 -4 -21 -17 -56 -29 -35 -12 -114
-41 -176 -64 -104 -38 -118 -41 -165 -32 -39 7 -47 11 -32 16 61 22 130 48
210 79 87 34 199 49 219 30z m826 -27 l65 -12 -45 -18 c-25 -10 -56 -23 -70
-29 -31 -13 -27 -12 -75 -20 -43 -7 -210 6 -185 15 8 3 31 11 50 18 37 13 182
58 190 58 3 1 34 -5 70 -12z m660 -52 c41 -4 82 -8 90 -10 8 -1 35 -3 60 -4
41 -1 43 -2 26 -15 -10 -7 -61 -30 -113 -50 -78 -31 -102 -36 -141 -31 -93 12
-218 25 -254 28 -21 1 -38 5 -38 9 0 6 69 35 165 70 29 10 67 16 90 14 22 -2
74 -7 115 -11z m-1233 -38 c3 -3 -43 -20 -118 -44 -39 -13 -149 -16 -149 -4 0
16 165 58 215 54 27 -2 51 -5 52 -6z m-958 -27 c30 -5 72 -9 93 -9 l39 0 -6
-242 c-3 -134 -8 -324 -11 -423 -3 -99 -7 -261 -10 -360 -5 -161 -7 -180 -22
-178 -63 6 -255 35 -267 39 -7 3 -12 11 -10 17 2 7 7 210 10 452 4 242 8 454
9 470 0 17 -2 40 -6 52 -4 13 -3 25 3 29 6 3 9 20 8 38 -1 17 -1 55 0 84 l1
53 58 -6 c31 -4 81 -11 111 -16z m3031 -3 c40 -3 79 -11 84 -16 7 -7 6 -10 -2
-10 -7 0 -55 -18 -107 -41 l-95 -40 -77 10 c-43 6 -91 12 -108 13 -25 3 -19 7
45 31 41 16 95 37 120 46 25 10 50 17 55 15 6 -1 44 -5 85 -8z m-1940 -67 l0
-62 -42 7 c-24 3 -73 9 -110 13 -38 3 -68 9 -68 13 0 11 180 89 208 90 8 0 12
-19 12 -61z m155 51 c44 -5 95 -11 113 -12 21 -1 37 -10 44 -21 9 -18 7 -196
-7 -482 -4 -89 -12 -329 -21 -660 -3 -121 -7 -221 -8 -222 -1 -1 -215 35 -229
40 -7 2 -11 49 -10 133 2 151 12 715 18 989 3 105 5 202 5 218 0 15 3 27 8 27
4 0 43 -4 87 -10z m-961 -20 c33 -5 60 -11 62 -13 10 -10 3 -366 -11 -527 -5
-58 -15 -357 -18 -532 l-2 -137 -35 5 c-19 2 -51 7 -70 11 -19 3 -39 5 -44 4
-4 -1 -6 13 -3 31 4 18 9 161 12 318 4 157 8 295 10 308 7 46 7 517 0 535 -6
15 -4 17 16 13 13 -3 51 -10 83 -16z m454 -46 l22 -4 -5 -193 c-3 -105 -8
-232 -10 -282 -2 -49 -7 -196 -10 -325 -7 -278 -14 -419 -23 -423 -8 -4 -185
24 -192 30 -2 2 1 7 7 11 14 9 20 89 28 372 3 118 8 265 10 325 15 331 18 433
17 463 -1 19 0 37 3 41 4 7 93 -2 153 -15z m1172 6 c41 -5 96 -10 123 -10 46
0 47 -1 42 -27 -3 -16 -8 -86 -11 -158 -3 -71 -7 -136 -9 -142 -3 -8 -17 -11
-42 -8 -272 33 -255 28 -249 79 3 22 6 96 7 164 l2 124 31 -6 c17 -3 65 -10
106 -16z m1524 -19 c8 -12 -254 -135 -284 -133 -43 3 -114 13 -119 17 -2 3 5
8 15 11 10 4 72 29 137 57 92 39 126 49 155 45 20 -3 46 -2 57 3 27 10 33 10
39 0z m-676 -57 c121 -16 132 -20 132 -38 0 -23 -17 -385 -25 -541 -9 -184
-17 -265 -25 -260 -12 7 -141 24 -200 26 l-52 2 8 281 c4 155 8 343 8 419 1
92 4 136 12 133 5 -2 69 -12 142 -22z m-1678 12 c0 -3 -4 -8 -10 -11 -5 -3
-10 -1 -10 4 0 6 5 11 10 11 6 0 10 -2 10 -4z m-91 -26 c66 -8 87 -7 94 3 4 7
6 -59 3 -153 -3 -91 -8 -293 -11 -450 -3 -157 -8 -347 -11 -423 -4 -100 -2
-143 7 -153 6 -8 10 -16 8 -19 -3 -2 -52 3 -109 12 -58 8 -122 17 -143 20
l-39 5 6 227 c9 345 18 652 21 691 2 19 3 86 4 147 l1 113 43 -5 c23 -3 80
-10 126 -15z m-490 -36 c11 -4 13 -43 7 -237 -4 -127 -9 -281 -13 -342 -3 -60
-8 -196 -12 -301 l-6 -191 -45 11 -45 11 0 70 c1 65 10 335 22 635 3 69 6 177
8 240 2 63 4 116 5 117 0 3 59 -7 79 -13z m3194 4 c9 0 17 -3 17 -9 0 -5 -6
-9 -14 -9 -8 0 -21 -6 -28 -12 -7 -7 -23 -14 -36 -15 -13 -2 -73 -28 -135 -59
-106 -53 -114 -55 -165 -49 -48 6 -53 9 -40 21 8 8 82 44 164 79 124 54 155
64 184 58 19 -4 43 -6 53 -5z m-2123 -17 c158 -25 141 -17 136 -64 -5 -43 -10
-154 -22 -505 -7 -200 -7 -203 -28 -198 -12 3 -63 13 -115 23 l-94 17 7 255
c4 141 7 309 8 373 1 114 2 117 22 113 12 -2 50 -8 86 -14z m2295 -21 c-3 -5
-12 -10 -20 -10 -8 0 -20 -9 -28 -20 -8 -11 -17 -17 -20 -14 -4 4 -12 2 -19
-4 -7 -5 -49 -28 -93 -51 -87 -45 -163 -55 -201 -27 -14 11 -15 14 -4 14 24
-2 80 14 80 22 0 4 11 11 25 14 13 3 62 24 107 46 60 28 96 39 131 40 30 0 46
-4 42 -10z m181 -105 l4 -94 -28 5 c-15 3 -94 11 -176 17 l-149 12 144 71
c155 77 192 94 198 88 2 -2 6 -46 7 -99z m-958 60 c52 -6 62 -10 58 -24 -2 -9
-8 -126 -11 -261 -4 -135 -8 -247 -10 -250 -5 -9 -19 -492 -20 -672 0 -189 8
-175 -86 -158 -30 5 -70 11 -89 13 -30 2 -35 6 -34 27 2 75 15 417 19 490 10
188 15 303 21 480 3 102 7 205 9 230 2 25 4 68 4 96 l1 52 38 -8 c20 -5 65
-11 100 -15z m-556 -35 c3 -16 3 -42 0 -58 l-4 -27 -104 11 c-58 7 -107 14
-110 16 -6 6 178 84 207 87 4 1 9 -12 11 -29z m893 -101 c61 -6 115 -16 122
-21 8 -6 9 -18 3 -36 -5 -15 -11 -180 -14 -367 -3 -187 -9 -453 -12 -592 -6
-198 -4 -256 6 -268 15 -18 19 -18 -119 1 -62 8 -119 13 -127 10 -9 -3 -12 -1
-9 4 5 9 -68 15 -78 8 -12 -9 -34 26 -31 48 1 15 6 169 9 343 4 174 9 319 11
322 2 3 6 129 9 280 4 151 8 279 10 285 2 8 19 9 57 3 29 -5 103 -14 163 -20z
m-1158 -14 c65 -8 145 -15 178 -16 93 -2 93 -2 90 -62 -11 -177 -24 -601 -29
-912 l-2 -150 -39 3 c-51 4 -378 51 -380 54 0 2 2 71 6 154 4 83 10 295 14
470 7 293 12 474 14 483 1 2 8 1 16 -3 8 -3 68 -12 132 -21z m-346 -38 l124
-12 3 -48 c3 -44 1 -47 -15 -39 -10 6 -75 16 -145 23 l-128 13 0 42 c0 36 3
41 19 37 10 -2 74 -10 142 -16z m1944 -3 c66 -3 134 -8 150 -10 29 -5 30 -7
28 -62 -1 -31 -3 -140 -4 -241 -3 -154 -6 -184 -19 -189 -8 -3 -21 -13 -28
-21 -11 -14 -11 -14 -6 1 7 20 -2 25 -66 33 -25 3 -87 10 -137 17 l-93 11 0
239 0 240 28 -6 c15 -3 81 -9 147 -12z m-1895 -141 l75 -8 -1 -60 c-1 -95 -16
-547 -18 -575 -2 -14 -4 -76 -4 -137 l-2 -112 -27 4 c-16 2 -83 12 -150 21
-77 11 -120 21 -118 28 4 12 12 245 21 606 3 129 7 240 9 246 2 7 25 8 71 2
38 -4 103 -11 144 -15z m1840 -393 c110 -13 183 -13 197 1 22 22 25 -34 21
-407 l-3 -375 -25 5 c-22 5 -65 12 -285 44 -40 6 -50 11 -48 26 2 27 16 432
17 508 1 61 8 86 18 57 2 -5 39 -12 82 -14 43 -2 81 -6 84 -9 3 -3 26 -6 51
-6 35 0 43 3 31 11 -12 9 -10 10 8 6 19 -5 21 -3 11 9 -6 8 -17 13 -23 13 -6
-1 -18 0 -26 4 -8 3 -25 8 -38 10 -19 4 -22 2 -18 -11 6 -16 5 -16 -7 0 -9 12
-36 19 -88 24 -41 3 -77 8 -81 11 -5 2 -8 29 -8 59 0 51 1 54 23 49 12 -3 60
-9 107 -15z m-2205 -16 c28 -3 55 -7 61 -9 8 -2 10 -36 7 -107 -3 -57 -6 -104
-6 -104 -1 -1 -47 5 -102 12 -55 7 -106 13 -113 14 -10 0 -13 25 -11 106 l1
106 57 -6 c31 -4 79 -10 106 -12z m1133 -8 c89 -11 111 -8 97 14 -3 6 -1 10 5
10 7 0 9 -34 6 -107 -9 -204 -19 -468 -18 -487 1 -16 -4 -18 -36 -13 -20 3
-77 11 -127 18 l-90 12 2 151 c1 113 9 359 13 425 0 2 12 0 28 -4 15 -4 69
-12 120 -19z m-1162 -254 c41 0 77 -2 81 -5 9 -10 9 -167 -1 -167 -30 0 -213
33 -220 40 -4 5 -5 40 -1 78 l7 70 29 -8 c16 -5 63 -8 105 -8z m2052 -437 c3
-3 -10 -5 -31 -3 -20 1 -37 6 -37 11 0 9 58 3 68 -8z"/>
<path d="M4642 4900 c2 -51 22 -48 25 3 2 27 -2 37 -12 37 -11 0 -14 -11 -13
-40z"/>
<path d="M4910 4150 c0 -5 5 -10 10 -10 6 0 10 5 10 10 0 6 -4 10 -10 10 -5 0
-10 -4 -10 -10z"/>
<path d="M4910 4120 c0 -5 5 -10 10 -10 6 0 10 5 10 10 0 6 -4 10 -10 10 -5 0
-10 -4 -10 -10z"/>
<path d="M5408 2973 c-31 -8 -19 -21 25 -27 48 -7 63 -5 59 9 -1 6 4 2 12 -8
14 -18 52 -26 211 -47 50 -6 122 -17 160 -25 97 -19 281 -48 385 -60 30 -3
105 -16 165 -27 104 -19 144 -25 390 -62 55 -8 166 -26 247 -40 81 -14 171
-28 200 -31 29 -3 76 -9 103 -15 54 -11 501 -80 550 -85 32 -4 304 -47 420
-67 39 -7 89 -13 113 -13 23 0 42 -3 42 -6 0 -4 21 -10 48 -13 26 -4 72 -11
102 -16 30 -6 111 -19 180 -30 69 -11 173 -29 232 -39 78 -13 110 -15 119 -7
9 8 10 8 5 -1 -5 -9 1 -13 18 -14 14 -1 29 -2 34 -3 14 -4 108 -17 152 -21 50
-5 82 -11 112 -21 18 -5 19 -4 7 9 -8 8 -20 12 -28 9 -10 -4 -12 -1 -7 7 6 9
2 12 -10 10 -18 -2 -31 1 -82 22 -30 12 -45 11 -37 -1 3 -6 1 -10 -4 -10 -6 0
-11 6 -11 13 0 9 -34 19 -102 30 -57 9 -112 18 -123 21 -11 2 -65 11 -120 20
-94 15 -198 33 -340 57 -33 5 -73 11 -90 13 -16 3 -97 16 -180 29 -82 14 -168
28 -190 32 -22 3 -65 10 -95 15 -161 28 -234 40 -272 45 -24 3 -59 7 -78 10
-19 3 -118 18 -220 35 -165 27 -224 35 -310 44 -14 2 -63 10 -110 19 -47 9
-134 23 -195 31 -60 9 -135 21 -165 26 -30 5 -99 17 -152 25 -54 8 -140 22
-190 30 -125 20 -143 23 -213 35 -168 26 -323 51 -440 71 -123 20 -289 31
-327 22z m2717 -423 c3 -5 -1 -10 -10 -10 -9 0 -13 5 -10 10 3 6 8 10 10 10 2
0 7 -4 10 -10z m1000 -159 c3 -5 0 -13 -6 -17 -7 -4 -9 -3 -5 4 3 5 0 13 -6
15 -9 4 -10 6 -1 6 6 1 14 -3 18 -8z"/>
<path d="M2760 2927 c0 -8 7 -18 16 -21 23 -9 36 -7 29 4 -3 6 1 7 9 4 9 -3
14 -10 11 -14 -3 -5 21 -14 52 -21 32 -7 63 -14 68 -15 6 -1 69 -12 140 -24
72 -12 141 -23 155 -26 282 -47 306 -50 319 -40 11 8 13 8 7 -1 -4 -8 -2 -13
6 -14 7 0 21 -2 31 -4 11 -2 15 1 10 8 -5 9 -3 9 8 0 17 -14 85 -15 71 -1 -15
15 -81 27 -88 16 -3 -5 -12 -1 -19 8 -7 10 -19 15 -28 11 -9 -3 -17 -1 -19 5
-4 11 -88 29 -88 19 0 -4 5 -12 12 -19 9 -9 8 -12 -5 -12 -10 0 -17 8 -17 18
0 16 -15 22 -82 35 -134 27 -425 77 -477 82 -14 1 -47 5 -73 10 -40 6 -48 5
-48 -8z m907 -163 c-3 -3 -12 -4 -19 -1 -8 3 -5 6 6 6 11 1 17 -2 13 -5z"/>
<path d="M5940 2337 c0 -8 6 -14 13 -14 8 0 14 6 14 14 0 7 -6 13 -14 13 -7 0
-13 -6 -13 -13z"/>
<path d="M5983 2335 c-3 -9 -3 -19 1 -22 3 -4 6 -1 6 5 0 7 7 12 15 12 8 0 15
5 15 10 0 16 -30 12 -37 -5z"/>
<path d="M6027 2333 c-4 -3 -7 -12 -7 -18 0 -15 149 -48 176 -39 13 4 15 3 6
-3 -9 -7 15 -15 75 -27 48 -10 108 -22 133 -27 25 -5 119 -22 210 -38 91 -16
228 -41 305 -55 77 -14 154 -27 170 -30 17 -2 64 -12 105 -21 41 -9 95 -19
120 -22 25 -3 47 -7 49 -9 2 -2 11 2 19 9 11 8 14 8 9 0 -8 -12 -2 -14 208
-52 169 -31 303 -53 340 -56 19 -2 42 -6 52 -9 10 -3 34 -8 53 -11 36 -6 40
-6 100 -18 42 -8 62 -12 209 -38 63 -11 118 -22 121 -24 3 -2 11 5 18 15 16
26 -11 49 -38 32 -15 -9 -18 -9 -14 1 3 9 -21 18 -86 30 -50 10 -96 15 -102
11 -6 -4 -8 -3 -4 4 4 7 -14 13 -51 17 -32 4 -77 11 -101 16 -23 5 -59 12 -80
15 -20 3 -68 11 -107 19 -128 25 -157 27 -166 13 -7 -10 -9 -10 -9 3 0 12 -24
20 -107 34 -60 10 -124 18 -145 19 -20 1 -34 4 -32 7 2 4 -13 9 -34 12 -20 2
-77 12 -127 21 -49 10 -101 19 -115 21 -22 4 -76 14 -305 55 -27 5 -99 18
-160 29 -259 47 -394 72 -450 81 -33 6 -83 16 -112 22 -28 6 -61 8 -72 5 -12
-3 -19 -1 -15 4 6 10 -29 12 -39 2z m2267 -427 c-10 -8 -21 -12 -24 -10 -5 6
21 24 34 24 6 0 1 -6 -10 -14z"/>
<path d="M3533 2078 c-35 -5 -63 -13 -63 -16 0 -4 -19 -6 -41 -6 -23 1 -58 -2
-78 -7 -20 -4 -85 -17 -146 -29 -60 -11 -128 -25 -150 -30 -22 -5 -84 -16
-137 -26 -54 -9 -95 -21 -92 -25 2 -4 -1 -11 -7 -15 -8 -4 -9 -3 -5 4 9 15 -8
15 -58 1 -54 -15 -72 -19 -148 -31 -38 -7 -68 -15 -68 -19 0 -5 -7 -6 -15 -3
-17 7 -75 -14 -75 -26 0 -13 31 -21 64 -15 17 4 38 7 46 9 8 2 33 6 55 10 22
4 54 12 71 17 17 5 40 11 50 13 128 25 461 91 539 107 130 27 125 26 182 35
26 4 59 11 73 17 14 5 34 9 45 8 11 0 37 5 59 13 31 11 34 14 18 18 -11 3 -26
1 -33 -6 -9 -8 -10 -8 -5 2 8 13 7 14 -81 0z m67 -8 c0 -5 -8 -10 -17 -10 -15
0 -16 2 -3 10 19 12 20 12 20 0z"/>
<path d="M3900 2030 c-52 -9 -108 -20 -125 -23 -16 -3 -70 -13 -120 -22 -49
-9 -124 -23 -165 -31 -41 -8 -127 -23 -190 -34 -122 -22 -161 -29 -440 -85
-96 -19 -193 -37 -215 -40 -53 -8 -121 -33 -135 -51 -10 -11 -9 -14 6 -14 27
0 285 39 293 45 8 4 659 127 806 151 50 8 106 19 125 24 19 5 51 11 70 14 155
24 260 55 260 75 0 15 -58 12 -170 -9z"/>
<path d="M4140 1933 c-194 -35 -700 -135 -745 -148 -27 -7 -69 -19 -93 -25
-36 -9 -41 -14 -32 -25 7 -8 16 -12 21 -9 5 3 22 7 37 9 15 2 61 10 102 19 72
14 154 28 165 27 2 0 19 5 37 10 18 6 47 12 63 14 45 5 97 15 106 21 4 2 34 7
66 10 32 4 74 13 95 20 20 7 38 11 40 8 4 -4 42 3 128 21 14 3 52 10 85 15
111 20 114 20 108 36 -7 18 -71 17 -183 -3z"/>
<path d="M8516 1876 c3 -9 1 -16 -5 -16 -6 0 -11 -4 -11 -8 0 -9 11 -12 60
-15 17 -1 30 -5 30 -8 0 -3 6 -6 13 -6 6 0 32 -4 57 -8 25 -5 59 -9 75 -9 17
-1 32 -4 35 -8 8 -10 80 -25 113 -24 15 1 27 -2 27 -6 0 -16 18 -8 22 10 7 25
80 19 76 -7 -2 -9 4 -16 12 -16 8 0 21 -4 28 -8 6 -5 16 -6 21 -3 5 4 21 2 35
-4 17 -6 26 -6 26 1 0 5 -7 12 -15 15 -8 4 -12 10 -9 15 8 14 -4 11 -31 -7
-15 -10 -25 -12 -25 -5 0 6 7 11 15 11 8 0 15 5 15 11 0 5 -4 8 -9 5 -4 -3
-23 -1 -42 4 -31 9 -109 24 -181 35 -15 2 -45 9 -68 15 -48 13 -90 4 -55 -11
l20 -9 -20 3 c-11 1 -20 7 -20 14 0 17 -6 21 -48 27 -25 4 -36 2 -32 -4 3 -5
-1 -10 -10 -10 -11 0 -15 5 -11 15 4 11 -2 15 -22 15 -15 0 -37 3 -50 6 -18 5
-21 3 -16 -10z m74 -10 c0 -2 -7 -7 -16 -10 -8 -3 -12 -2 -9 4 6 10 25 14 25
6z m230 -56 c0 -5 -4 -10 -9 -10 -6 0 -13 5 -16 10 -3 6 1 10 9 10 9 0 16 -4
16 -10z m40 -10 c12 -7 10 -9 -8 -7 -12 0 -22 5 -22 9 0 11 12 10 30 -2z"/>
<path d="M8941 1778 c-1 -10 3 -18 8 -18 5 0 16 -3 24 -6 8 -3 17 2 21 12 5
13 2 15 -19 12 -13 -3 -26 0 -29 6 -2 6 -5 3 -5 -6z"/>
<path d="M9147 1751 c24 -24 60 -32 73 -16 9 11 5 13 -18 9 -21 -3 -31 0 -35
11 -4 8 -13 15 -22 15 -14 0 -13 -3 2 -19z"/>
<path d="M1227 1754 c-1 -1 -36 -5 -77 -8 -113 -10 -229 -26 -255 -36 -13 -5
-42 -12 -66 -15 -53 -8 -119 -34 -119 -47 0 -11 68 -4 230 24 141 24 220 36
283 45 33 4 47 10 48 22 0 10 2 12 6 4 2 -7 14 -13 25 -13 17 0 18 3 8 15 -10
11 -71 18 -83 9z"/>
<path d="M3230 1740 c-12 -8 -12 -10 2 -15 26 -10 43 -2 26 12 -8 7 -19 8 -28
3z"/>
<path d="M9240 1730 c0 -5 5 -10 11 -10 5 0 7 5 4 10 -3 6 -8 10 -11 10 -2 0
-4 -4 -4 -10z"/>
<path d="M3200 1720 c0 -5 5 -10 11 -10 5 0 7 5 4 10 -3 6 -8 10 -11 10 -2 0
-4 -4 -4 -10z"/>
<path d="M1527 1684 c-184 -22 -422 -77 -411 -96 3 -4 -2 -5 -10 -2 -9 3 -16
1 -16 -5 0 -15 35 -14 90 3 25 7 51 11 58 9 6 -3 12 -1 12 4 0 4 24 9 53 10
28 1 104 11 167 23 109 19 173 29 213 33 9 1 17 7 17 14 0 7 -8 13 -17 14 -10
0 -27 2 -38 3 -11 1 -64 -4 -118 -10z m-197 -54 c0 -5 -4 -10 -10 -10 -5 0
-10 5 -10 10 0 6 5 10 10 10 6 0 10 -4 10 -10z"/>
<path d="M1710 1680 c0 -5 5 -10 11 -10 5 0 7 5 4 10 -3 6 -8 10 -11 10 -2 0
-4 -4 -4 -10z"/>
</g>
</svg>
