<?xml version="1.0" standalone="no"?>
<!DOCTYPE svg PUBLIC "-//W3C//DTD SVG 20010904//EN"
 "http://www.w3.org/TR/2001/REC-SVG-20010904/DTD/svg10.dtd">
<svg version="1.0" xmlns="http://www.w3.org/2000/svg"
 width="723.000000pt" height="208.000000pt" viewBox="0 0 723.000000 208.000000"
 preserveAspectRatio="xMidYMid meet">

<g transform="translate(0.000000,208.000000) scale(0.100000,-0.100000)"
fill="#000000" stroke="none">
<path d="M341 1754 c-21 -26 -21 -35 -21 -655 l0 -628 24 -18 c17 -14 62 -25
150 -37 273 -38 412 -93 585 -234 65 -53 78 -51 164 20 142 118 441 218 653
218 31 0 50 6 64 20 20 20 20 33 20 665 l0 645 -25 16 c-21 14 -41 15 -128 9
-258 -17 -464 -85 -621 -204 l-66 -50 -27 26 c-77 72 -228 147 -371 184 -71
18 -293 49 -354 49 -17 0 -34 -10 -47 -26z m299 -100 c158 -27 305 -90 398
-170 l36 -31 -39 -13 c-184 -60 -291 -177 -318 -350 l-11 -72 -48 -24 c-58
-29 -124 -87 -144 -125 -49 -96 27 -169 176 -169 30 0 70 4 89 10 31 9 37 7
74 -27 39 -34 122 -77 200 -102 30 -10 37 -17 38 -39 3 -99 3 -242 1 -242 -2
0 -23 14 -48 30 -124 86 -308 150 -513 178 l-124 17 6 374 c4 206 7 466 7 579
l0 204 68 -7 c37 -4 105 -13 152 -21z m1248 -556 l-3 -583 -85 -8 c-208 -18
-442 -101 -577 -203 l-33 -25 0 143 0 143 94 53 c52 28 119 75 150 103 59 54
112 145 123 212 l6 37 -114 -51 c-175 -77 -427 -159 -582 -188 -46 -8 -49 -8
-72 24 -14 17 -25 36 -25 42 0 6 49 18 109 27 196 30 436 109 599 197 41 21
75 39 78 39 2 0 4 -18 4 -40 0 -22 3 -40 6 -40 24 0 139 75 187 120 46 46 57
62 57 89 0 84 -44 106 -214 105 l-129 0 -40 43 c-41 45 -145 103 -183 103 -38
0 -36 17 4 49 132 104 384 186 585 190 l57 1 -2 -582z m-178 94 c0 -12 -58
-65 -105 -96 l-40 -26 -11 48 c-6 26 -15 55 -19 65 -6 15 1 17 84 17 50 0 91
-4 91 -8z m-960 -365 c16 -27 6 -32 -65 -32 -75 0 -102 16 -80 47 7 11 35 36
62 55 l48 34 12 -43 c7 -24 17 -51 23 -61z"/>
<path d="M2470 1060 l0 -480 303 2 302 3 3 83 3 82 -206 0 -205 0 0 395 0 395
-100 0 -100 0 0 -480z"/>
<path d="M3988 1368 l-3 -83 -52 -3 -53 -3 0 -70 0 -69 53 0 52 0 1 -208 c1
-185 3 -212 21 -252 36 -80 91 -109 208 -109 115 -1 115 -1 115 83 l0 71 -52
-3 c-96 -6 -107 21 -108 266 l0 152 75 0 75 0 0 70 0 69 -72 3 -73 3 0 83 0
82 -92 0 -92 0 -3 -82z"/>
<path d="M4478 1368 l-3 -83 -52 -3 -53 -3 0 -70 0 -69 55 0 55 0 0 -202 c0
-228 7 -269 55 -313 41 -39 94 -55 183 -55 102 0 102 0 102 85 l0 72 -49 -5
c-98 -9 -111 20 -111 256 l0 162 75 0 75 0 0 70 0 70 -75 0 -75 0 0 85 0 85
-90 0 -89 0 -3 -82z"/>
<path d="M3413 1290 c-52 -11 -113 -42 -156 -79 -134 -119 -142 -415 -14 -549
57 -60 120 -85 223 -90 151 -7 252 36 314 135 45 71 43 73 -58 73 -76 0 -89
-3 -99 -20 -32 -50 -144 -69 -205 -33 -35 20 -78 92 -78 130 l0 23 240 0 240
0 0 63 c0 159 -81 289 -208 332 -52 18 -148 26 -199 15z m154 -160 c35 -21 52
-48 64 -97 l7 -33 -149 0 -149 0 6 28 c11 43 32 79 60 101 35 28 116 29 161 1z"/>
<path d="M5997 1286 c-32 -9 -63 -28 -93 -57 l-44 -43 0 47 0 47 -90 0 -90 0
0 -350 0 -350 90 0 90 0 0 225 c0 252 6 280 62 315 37 23 103 26 143 8 54 -25
60 -51 63 -310 l3 -238 95 0 94 0 0 228 c0 260 -8 328 -47 391 -50 79 -169
117 -276 87z"/>
<path d="M6681 1289 c-145 -28 -241 -136 -261 -293 -22 -178 42 -325 174 -394
47 -25 61 -27 166 -27 97 0 122 3 162 22 68 31 131 99 158 169 33 82 33 243 1
325 -41 107 -127 176 -245 198 -67 12 -93 12 -155 0z m156 -159 c46 -28 75
-91 81 -175 5 -86 -10 -145 -49 -190 -74 -83 -187 -66 -241 38 -33 63 -32 195
2 261 42 81 135 111 207 66z"/>
<path d="M4910 1046 c0 -128 5 -258 10 -287 24 -125 101 -191 227 -191 78 -1
129 20 177 71 17 17 33 31 36 31 3 0 6 -19 6 -42 l-1 -43 93 -3 92 -3 0 351 0
350 -95 0 -95 0 0 -220 c0 -247 -6 -275 -62 -310 -64 -39 -165 -14 -188 46 -6
14 -10 129 -10 255 l0 229 -95 0 -95 0 0 -234z"/>
</g>
</svg>
